<svg xmlns="http://www.w3.org/2000/svg" width="100" height="100" viewBox="0 0 100 100"><path d="M50 100C22.43 100 0 77.57 0 50S22.43 0 50 0s50 22.43 50 50-22.43 50-50 50zm0-94C25.738 6 6 25.738 6 50s19.738 44 44 44 44-19.738 44-44S74.262 6 50 6zM62.05 27.206c-9.604-9.608-25.237-9.608-34.844 0-9.607 9.607-9.607 25.24 0 34.845 9.277 9.28 24.172 9.597 33.835.954l1.954 1.953c-.486 1.246-.23 2.713.773 3.72l10.31 10.308c1.354 1.354 3.552 1.354 4.905 0 1.355-1.354 1.355-3.553 0-4.907L68.676 63.77c-1.006-1.006-2.474-1.26-3.718-.772l-1.954-1.955c8.642-9.665 8.325-24.56-.953-33.837zm-31.9 31.9c-7.984-7.982-7.984-20.972 0-28.957 7.983-7.985 20.974-7.984 28.958 0 7.982 7.982 7.982 20.972 0 28.957-7.984 7.985-20.974 7.985-28.958 0zM35.015 34.836c3.487-3.487 7.54-6.02 11.802-7.597-4.828-.276-10 1.603-13.967 5.57-4.023 4.023-5.896 9.283-5.555 14.17 1.565-4.387 4.14-8.563 7.72-12.144z"/></svg>