<svg xmlns="http://www.w3.org/2000/svg" width="100" height="100" viewBox="0 0 100 100"><path d="M50 100C22.43 100 0 77.57 0 50S22.43 0 50 0s50 22.43 50 50-22.43 50-50 50zm0-94C25.738 6 6 25.738 6 50s19.738 44 44 44 44-19.738 44-44S74.262 6 50 6zM57.755 72.413c-1.04-.766-1.15-1.914-1.15-1.914l-.39-2.493h-12.43l-.39 2.49s-.108 1.15-1.148 1.916c-1.04.765-1.86 1.42-1.04 1.53.79.107 8.245.01 8.794 0 .552.01 8.003.107 8.794 0 .82-.11 0-.763-1.04-1.53zM33.65 46.104h4.8v9h-4.8zM43.85 41.904h4.8v13.2h-4.8zM53.45 46.104h4.8v9h-4.8zM62.45 41.904h4.8v13.2h-4.8zM46.79 36.84l9.702 6.215 13.412-9.704-1.407-1.943-12.087 8.745-9.497-6.085-16.817 8.648 1.11 2.127zM77.6 26.006H22.4c-1.325 0-2.4 1.075-2.4 2.4v34.8c0 1.325 1.075 2.4 2.4 2.4h55.2c1.326 0 2.4-1.075 2.4-2.4v-34.8c0-1.325-1.074-2.4-2.4-2.4zm-1.2 32.4H23.6v-28.8h52.8v28.8z"/></svg>