<svg xmlns="http://www.w3.org/2000/svg" width="100" height="100" viewBox="0 0 100 100"><path d="M50 100C22.43 100 0 77.57 0 50S22.43 0 50 0s50 22.43 50 50-22.43 50-50 50zm0-94C25.738 6 6 25.738 6 50s19.738 44 44 44 44-19.738 44-44S74.262 6 50 6zM72.925 21.698c0-.925-.772-1.698-1.698-1.698H28.774c-.925 0-1.698.773-1.698 1.698v56.604c0 .926.772 1.698 1.698 1.698h42.453c.5 0 .88-.182 1.15-.455.018-.014.033-.03.048-.045s.032-.03.045-.047c.273-.27.455-.65.455-1.15V21.697zm-3.397 54.906H30.472V23.396h39.056v53.208zM35.1 29.9h12.8v2.4H35.1zM52.3 29.6h12.9v12H52.3zM35.1 34.7h12.8v2.4H35.1zM35.1 39.5h12.8v2.4H35.1zM35.1 44.3h30.1v2.4H35.1zM35.1 50.3h30.1v2.4H35.1zM58.43 63.51h-1.308c-.17-.656-.434-1.287-.772-1.86l.928-.93c.28-.28.28-.737 0-1.02l-1.526-1.527c-.28-.28-.737-.28-1.02 0l-.932.928c-.572-.338-1.203-.602-1.86-.77v-1.31c0-.397-.312-.72-.71-.72h-2.16c-.398 0-.712.322-.712.72v1.31c-.655.17-1.286.432-1.86.77l-.93-.927c-.28-.28-.737-.28-1.018 0L43.022 59.7c-.28.28-.28.736 0 1.018l.928.932c-.34.573-.602 1.204-.772 1.86H41.87c-.398 0-.72.313-.72.712v2.16c0 .397.322.71.72.71h1.308c.17.657.434 1.288.772 1.86l-.928.93c-.28.28-.28.738 0 1.02l1.527 1.527c.28.28.736.28 1.017 0l.932-.928c.572.338 1.203.602 1.858.772v1.31c0 .396.313.72.712.72h2.16c.397 0 .71-.323.71-.72v-1.31c.657-.17 1.288-.435 1.86-.772l.93.928c.28.28.738.28 1.02 0l1.528-1.527c.28-.28.28-.736 0-1.018l-.928-.933c.34-.572.603-1.203.772-1.86h1.308c.398 0 .72-.312.72-.71v-2.16c0-.4-.322-.712-.72-.712zm-8.28 5.39c-1.99 0-3.6-1.613-3.6-3.6 0-1.99 1.61-3.6 3.6-3.6 1.987 0 3.6 1.61 3.6 3.6 0 1.987-1.612 3.6-3.6 3.6z"/></svg>