<svg xmlns="http://www.w3.org/2000/svg" width="100" height="100" viewBox="0 0 100 100"><path d="M50 100C22.43 100 0 77.57 0 50S22.43 0 50 0s50 22.43 50 50-22.43 50-50 50zm0-94C25.738 6 6 25.738 6 50s19.738 44 44 44 44-19.738 44-44S74.262 6 50 6zM45.05 55.46v3.67L32 53.474v-3.14l13.05-5.656v3.697l-9.093 3.504 9.094 3.58zM53.12 44.6l-3.634 14.958c-.12.493-.226.883-.316 1.168s-.23.51-.415.667c-.186.16-.457.24-.81.24-.883 0-1.325-.382-1.325-1.14 0-.2.087-.697.26-1.493l3.62-14.958c.19-.795.37-1.34.544-1.634.174-.294.51-.44 1.013-.44.433 0 .763.103.992.31.228.21.343.495.343.857 0 .267-.092.756-.273 1.465zM68 53.474l-13.05 5.683v-3.672l9.12-3.58-9.12-3.53V44.73L68 50.36v3.114zM76.4 23.6H23.6c-1.988 0-3.6 1.612-3.6 3.6v45.6c0 1.987 1.612 3.6 3.6 3.6h52.8c1.988 0 3.6-1.612 3.6-3.6V27.2c0-1.99-1.61-3.6-3.6-3.6zm-9 2.4c1.322 0 2.4 1.076 2.4 2.4s-1.078 2.4-2.4 2.4c-1.323 0-2.4-1.076-2.4-2.4s1.077-2.4 2.4-2.4zm-6.6 0c1.323 0 2.4 1.076 2.4 2.4s-1.077 2.4-2.4 2.4-2.4-1.076-2.4-2.4 1.077-2.4 2.4-2.4zm15.6 46.8H23.6V33.2h52.8v39.6zm-2.4-42c-1.323 0-2.4-1.076-2.4-2.4S72.677 26 74 26s2.4 1.076 2.4 2.4-1.077 2.4-2.4 2.4z"/></svg>