<svg xmlns="http://www.w3.org/2000/svg" width="100" height="100" viewBox="0 0 100 100"><path d="M50 100C22.43 100 0 77.57 0 50S22.43 0 50 0s50 22.43 50 50-22.43 50-50 50zm0-94C25.738 6 6 25.738 6 50s19.738 44 44 44 44-19.738 44-44S74.262 6 50 6zM67.61 27.254c-9.723-9.724-25.436-9.646-35.16.08-9.726 9.724-9.794 25.47-.07 35.196L49.95 80l17.605-17.608c9.725-9.726 9.778-25.413.054-35.138zM50 66.054c-11.763 0-21.3-9.535-21.3-21.298 0-11.766 9.537-21.303 21.3-21.303 11.764 0 21.3 9.537 21.3 21.303-.004 11.763-9.536 21.298-21.3 21.298z"/><path d="M48.815 29.604c.91-.78 2.507-.518 3.023.594 1.047 2.593 2.074 5.193 3.114 7.79.02.087.1.117.182.117 2.603.178 5.203.39 7.807.577.746.015 1.487.426 1.824 1.104.42.76.278 1.817-.405 2.38-2.1 1.727-4.18 3.475-6.272 5.206-.06.05-.117.102-.157.168.593 2.574 1.255 5.136 1.875 7.706.47 1.29-.63 2.808-2.01 2.707-.478-.006-.894-.267-1.272-.526-2.053-1.296-4.105-2.594-6.16-3.89-.174-.106-.34-.24-.536-.304-2.33 1.4-4.622 2.868-6.943 4.28-.64.382-1.488.376-2.115-.026-.662-.393-1.068-1.204-.913-1.97.668-2.748 1.42-5.482 2.06-8.234-1.887-1.624-3.802-3.215-5.697-4.828-.43-.348-.895-.712-1.08-1.254-.457-1.088.264-2.507 1.457-2.677 2.84-.24 5.698-.34 8.53-.602.98-2.34 1.923-4.7 2.892-7.046.175-.47.384-.957.795-1.27z"/></svg>