<svg xmlns="http://www.w3.org/2000/svg" width="100" height="100" viewBox="0 0 100 100"><path d="M50 100C22.43 100 0 77.57 0 50S22.43 0 50 0s50 22.43 50 50-22.43 50-50 50zm0-94C25.738 6 6 25.738 6 50s19.738 44 44 44 44-19.738 44-44S74.262 6 50 6zM62.05 27.207c-9.604-9.608-25.236-9.608-34.844 0-9.608 9.605-9.608 25.238 0 34.846 9.277 9.276 24.172 9.594 33.836.95l1.953 1.953c-.487 1.248-.23 2.713.772 3.718l10.31 10.31c1.354 1.354 3.552 1.354 4.905 0 1.355-1.355 1.355-3.552 0-4.906L68.675 63.77c-1.005-1.004-2.474-1.26-3.718-.772l-1.953-1.955c8.642-9.665 8.325-24.56-.953-33.836zm-31.9 31.9c-7.984-7.982-7.984-20.973 0-28.958 7.983-7.985 20.974-7.984 28.958 0 7.983 7.983 7.983 20.974 0 28.957-7.984 7.985-20.974 7.985-28.958 0zM42.795 49.817l-2.136-2.135 5.898-5.9c2.78 1.636 6.418 1.27 8.803-1.112 2.825-2.825 2.825-7.426 0-10.252-2.825-2.825-7.425-2.825-10.25 0-2.384 2.384-2.748 6.023-1.114 8.802L33.54 49.676c-.47.472-.47 1.236 0 1.708l.855.852c.472.474 1.235.474 1.708 0l1.994-1.99 2.136 2.135c.472.476 1.237.474 1.708 0l.855-.853c.473-.472.473-1.237 0-1.71zm4.023-17.69c1.885-1.884 4.95-1.884 6.833 0 1.887 1.885 1.887 4.95 0 6.834-1.882 1.885-4.946 1.886-6.832 0-1.884-1.883-1.884-4.948 0-6.833zM36.188 55.997l.724 2.48.66-2.307c.07-.24.122-.405.156-.493.034-.09.098-.173.19-.252.094-.08.223-.12.386-.12.165 0 .295.04.39.12.092.08.158.166.196.26s.09.256.16.485l.658 2.306.732-2.48c.048-.178.088-.307.118-.39.03-.08.08-.15.15-.21.072-.063.173-.092.306-.092s.248.045.346.137c.098.096.146.202.146.33 0 .11-.042.284-.126.515l-.907 2.66c-.08.224-.14.388-.183.486-.044.1-.112.19-.206.272-.094.077-.22.118-.385.118-.168 0-.3-.045-.397-.13-.096-.08-.167-.187-.214-.306-.047-.123-.097-.28-.15-.48l-.636-2.162-.614 2.163c-.08.303-.17.53-.264.68-.095.154-.262.23-.5.23-.123 0-.226-.023-.31-.07-.086-.05-.158-.116-.215-.204-.056-.088-.106-.19-.15-.312-.043-.12-.076-.215-.1-.287l-.9-2.657c-.09-.25-.134-.422-.134-.518 0-.12.048-.227.143-.32.094-.096.21-.143.35-.143.184 0 .308.05.374.156s.13.287.204.54zM42.958 55.997l.724 2.48.66-2.307c.07-.24.122-.405.156-.493.034-.09.098-.173.19-.252.094-.08.223-.12.386-.12.165 0 .295.04.39.12.093.08.158.166.196.26.038.094.09.256.16.485l.658 2.306.732-2.48c.048-.178.088-.307.118-.39.03-.08.08-.15.15-.21.072-.063.173-.092.306-.092s.248.045.346.137c.098.096.146.202.146.33 0 .11-.042.284-.126.515l-.907 2.66c-.078.224-.14.388-.183.486-.044.1-.112.19-.206.272-.094.077-.22.118-.384.118-.168 0-.3-.045-.396-.13-.096-.08-.167-.187-.214-.306-.046-.123-.096-.28-.15-.48l-.635-2.162-.614 2.163c-.08.303-.168.53-.264.683-.095.15-.262.23-.5.23-.123 0-.226-.023-.31-.072-.086-.05-.158-.115-.215-.204-.056-.088-.106-.19-.15-.313-.043-.122-.077-.218-.1-.288l-.9-2.66c-.09-.248-.134-.422-.134-.516 0-.12.047-.228.143-.322.094-.096.21-.143.35-.143.183 0 .308.054.373.158.062.106.133.287.205.54zM49.73 55.997l.724 2.48.66-2.307c.07-.24.122-.405.157-.493.034-.09.1-.173.19-.252.092-.08.22-.12.385-.12s.295.04.39.12c.094.08.16.166.196.26s.093.256.16.485l.658 2.306.73-2.48c.05-.178.09-.307.118-.39.03-.08.08-.15.15-.21.072-.063.173-.092.307-.092.13 0 .246.045.346.137.097.096.145.202.145.33 0 .11-.042.284-.126.515l-.91 2.66c-.077.224-.138.388-.182.486-.044.1-.11.19-.205.272-.095.077-.222.118-.386.118-.168 0-.303-.045-.396-.13-.097-.08-.168-.187-.214-.306-.046-.123-.1-.28-.15-.48l-.636-2.162-.613 2.163c-.082.303-.17.53-.264.68-.096.154-.262.23-.5.23-.123 0-.226-.023-.312-.07-.084-.05-.156-.116-.213-.204-.057-.088-.107-.19-.15-.312-.044-.12-.077-.215-.102-.287l-.9-2.657c-.088-.25-.133-.422-.133-.518 0-.12.047-.227.142-.32.095-.094.212-.143.35-.143.185 0 .31.05.374.156.07.106.14.287.212.54z"/></svg>