<svg xmlns="http://www.w3.org/2000/svg" width="100" height="100" viewBox="0 0 100 100"><path d="M50 100C22.43 100 0 77.57 0 50S22.43 0 50 0s50 22.43 50 50-22.43 50-50 50zm0-94C25.738 6 6 25.738 6 50s19.738 44 44 44 44-19.738 44-44S74.262 6 50 6zM72.466 47.22c-.322-1.174-3.317-1.275-4.522-.873L54.796 50.72 39.58 44.644l-1.605 1.713 6.51 7.818c-4.196 1.45-11.882 4.13-13.277 4.593-1.2.4 7.76 1.672 9.816 1.33 0 0 15.787-5.148 22.768-7.472l5.383-1.79c1.2-.4 3.64-2.346 3.29-3.617zM28.72 53.206l-1.22 1.126 3.234 3.773 4.687-1.65zM76.4 23.6H23.6c-1.988 0-3.6 1.612-3.6 3.6v45.6c0 1.987 1.612 3.6 3.6 3.6h52.8c1.988 0 3.6-1.612 3.6-3.6V27.2c0-1.99-1.61-3.6-3.6-3.6zm-9 2.4c1.322 0 2.4 1.076 2.4 2.4s-1.078 2.4-2.4 2.4c-1.323 0-2.4-1.076-2.4-2.4s1.077-2.4 2.4-2.4zm-6.6 0c1.323 0 2.4 1.076 2.4 2.4s-1.077 2.4-2.4 2.4-2.4-1.076-2.4-2.4 1.077-2.4 2.4-2.4zm15.6 46.8H23.6V33.2h52.8v39.6zm-2.4-42c-1.323 0-2.4-1.076-2.4-2.4S72.677 26 74 26s2.4 1.076 2.4 2.4-1.077 2.4-2.4 2.4z"/></svg>