<svg xmlns="http://www.w3.org/2000/svg" width="100" height="100" viewBox="0 0 100 100"><path d="M50 100C22.43 100 0 77.57 0 50S22.43 0 50 0s50 22.43 50 50-22.43 50-50 50zm0-94C25.738 6 6 25.738 6 50s19.738 44 44 44 44-19.738 44-44S74.262 6 50 6zM46.048 55.647l-8.145 8.145c-2.962 2.962-7.996 2.752-11.22-.472-3.222-3.224-3.434-8.255-.47-11.22l9.23-9.228c2.962-2.963 7.995-2.75 11.218.472 1.374 1.372 2.193 3.07 2.46 4.8 1.195-.126 2.32-.615 3.197-1.49l.34-.34c-.544-2.07-1.63-4.05-3.274-5.693-4.724-4.725-12.2-4.936-16.666-.47l-9.228 9.228c-4.466 4.465-4.254 11.94.47 16.667 4.725 4.725 12.202 4.936 16.667.47l9.228-9.227c.522-.523.977-1.09 1.37-1.688-1.69.347-3.45.355-5.177.047zM48.494 24.373l-9.23 9.23c-.522.523-.976 1.09-1.372 1.69 1.693-.348 3.452-.358 5.178-.05l8.146-8.145c2.963-2.963 7.996-2.75 11.22.472 3.223 3.223 3.435 8.255.47 11.218l-9.227 9.23c-2.965 2.962-7.997 2.75-11.22-.472-1.372-1.373-2.193-3.072-2.46-4.8-1.194.123-2.32.615-3.197 1.49l-.34.34c.545 2.07 1.63 4.05 3.274 5.693 4.725 4.725 12.2 4.936 16.666.47l9.228-9.227c4.467-4.466 4.255-11.94-.47-16.667-4.724-4.725-12.2-4.938-16.666-.473zM67.434 54.48c-7.093 0-12.84 5.75-12.84 12.842s5.747 12.842 12.84 12.842c7.092 0 12.84-5.75 12.84-12.842s-5.75-12.84-12.84-12.84zm7.544 15.488h-4.75v4.77c0 1.5-1.215 2.714-2.714 2.714S64.8 76.238 64.8 74.738v-4.77h-4.75c-1.5 0-2.715-1.216-2.715-2.715s1.216-2.715 2.714-2.715h4.75v-4.73c0-1.5 1.215-2.714 2.714-2.714s2.715 1.215 2.715 2.714v4.73h4.748c1.5 0 2.716 1.216 2.716 2.715-.002 1.5-1.217 2.715-2.716 2.715z"/></svg>