<svg xmlns="http://www.w3.org/2000/svg" width="100" height="100" viewBox="0 0 100 100"><path d="M50 100C22.43 100 0 77.57 0 50S22.43 0 50 0s50 22.43 50 50-22.43 50-50 50zm0-94C25.738 6 6 25.738 6 50s19.738 44 44 44 44-19.738 44-44S74.262 6 50 6zM62.05 27.207c-9.605-9.608-25.237-9.608-34.844 0-9.608 9.606-9.608 25.238 0 34.844 9.277 9.28 24.173 9.595 33.836.954l1.953 1.953c-.486 1.246-.23 2.713.774 3.72l10.306 10.306c1.355 1.355 3.553 1.355 4.907 0 1.355-1.354 1.355-3.552 0-4.907L68.677 63.77c-1.006-1.007-2.475-1.262-3.72-.775l-1.952-1.953c8.64-9.664 8.323-24.56-.955-33.835zm-31.9 31.9c-7.983-7.982-7.983-20.974 0-28.957 7.983-7.983 20.974-7.983 28.958 0 7.983 7.983 7.983 20.975 0 28.957-7.984 7.984-20.975 7.984-28.958 0zM52.778 31.21c-4.5-4.5-11.77-4.464-16.27.036s-4.533 11.787-.033 16.286l8.13 8.084 8.146-8.147c4.503-4.502 4.527-11.76.028-16.26zm-8.143 15.03c-3.828 0-6.932-3.104-6.932-6.932 0-3.83 3.104-6.933 6.932-6.933 3.83 0 6.932 3.104 6.932 6.933 0 3.827-3.102 6.93-6.932 6.93zM44.505 57.867c2.888 0 5.614.63 8.033 1.742-1.886-2.115-4.805-3.48-8.09-3.48-3.333 0-6.287 1.404-8.168 3.57 2.467-1.17 5.26-1.833 8.225-1.833z"/></svg>