<svg xmlns="http://www.w3.org/2000/svg" width="100" height="100" viewBox="0 0 100 100"><path d="M50 100C22.43 100 0 77.57 0 50S22.43 0 50 0s50 22.43 50 50-22.43 50-50 50zm0-94C25.738 6 6 25.738 6 50s19.738 44 44 44 44-19.738 44-44S74.262 6 50 6zM76.856 38.976l-1.21.5c-.407-.54-.892-1.022-1.424-1.422l.5-1.214c.153-.367-.02-.79-.39-.94l-1.994-.828c-.367-.152-.788.022-.94.39l-.507 1.212c-.657-.094-1.34-.096-2.012-.002l-.5-1.208c-.152-.368-.565-.545-.933-.393l-1.996.828c-.368.15-.534.57-.382.937l.5 1.208c-.54.408-1.022.893-1.422 1.425l-1.214-.5c-.366-.153-.79.022-.942.39l-.826 1.995c-.152.367.02.788.39.94l1.213.505c-.095.66-.096 1.342-.003 2.013l-1.208.5c-.368.152-.546.566-.394.934l.827 1.995c.15.367.568.533.937.38l1.208-.5c.41.542.893 1.023 1.426 1.424l-.5 1.213c-.153.368.022.79.39.942l1.995.826c.367.152.788-.02.94-.39l.506-1.212c.66.093 1.343.095 2.015.002l.5 1.21c.152.365.564.544.932.39l1.997-.825c.366-.15.533-.57.38-.937l-.5-1.208c.54-.41 1.023-.893 1.423-1.425l1.213.5c.367.153.79-.022.94-.39l.83-1.994c.15-.368-.023-.79-.39-.94l-1.213-.506c.094-.658.096-1.34.002-2.012l1.207-.5c.368-.152.546-.565.394-.933l-.826-1.995c-.153-.37-.57-.536-.938-.384zm-5.586 8.15c-1.838.76-3.943-.112-4.704-1.95-.76-1.836.11-3.94 1.95-4.703 1.836-.76 3.94.112 4.7 1.95.763 1.836-.11 3.942-1.946 4.703zM68.09 54.493V70.4h-26.4V30.2h26.4v2.89h3V24.8c0-2.65-2.148-4.8-4.8-4.8H43.492c-2.65 0-4.8 2.15-4.8 4.8v50.4c0 2.65 2.15 4.8 4.8 4.8h22.8c2.65 0 4.8-2.15 4.8-4.8V54.493h-3zM52.51 25.4h4.802c.33 0 .6.27.6.6s-.27.6-.6.6h-4.8c-.332 0-.6-.27-.6-.6s.268-.6.6-.6zm2.202 51.76c-1.325 0-2.4-1.075-2.4-2.4 0-1.326 1.075-2.4 2.4-2.4s2.398 1.074 2.398 2.4c0 1.325-1.073 2.4-2.398 2.4zM21.325 35.317h14.4v3h-14.4zM24.925 41.317h10.8v3h-10.8zM32.125 47.317h3.6v3h-3.6z"/></svg>