<svg xmlns="http://www.w3.org/2000/svg" width="100" height="100" viewBox="0 0 100 100"><path d="M50 100C22.43 100 0 77.57 0 50S22.43 0 50 0s50 22.43 50 50-22.43 50-50 50zm0-94C25.738 6 6 25.738 6 50s19.738 44 44 44 44-19.738 44-44S74.262 6 50 6zM76.4 23.6H23.6c-1.988 0-3.6 1.612-3.6 3.6v45.6c0 1.987 1.612 3.6 3.6 3.6h52.8c1.988 0 3.6-1.612 3.6-3.6V27.2c0-1.99-1.61-3.6-3.6-3.6zm-9 2.4c1.322 0 2.4 1.076 2.4 2.4s-1.078 2.4-2.4 2.4c-1.323 0-2.4-1.076-2.4-2.4s1.077-2.4 2.4-2.4zm-6.6 0c1.323 0 2.4 1.076 2.4 2.4s-1.077 2.4-2.4 2.4-2.4-1.076-2.4-2.4 1.077-2.4 2.4-2.4zm15.6 46.8H23.6V33.2h52.8v39.6zm-2.4-42c-1.323 0-2.4-1.076-2.4-2.4S72.677 26 74 26s2.4 1.076 2.4 2.4-1.077 2.4-2.4 2.4z"/><g><path d="M50.255 38.627c.272-.097.568.055.726.28.4.538.792 1.082 1.187 1.625.332.458.965.674 1.506.504.678-.22 1.352-.45 2.033-.654.37-.108.768.183.785.565.015.7.02 1.403.013 2.104-.012.558.363 1.093.88 1.29.69.227 1.39.438 2.072.685.362.128.512.6.3.918-.4.59-.836 1.158-1.25 1.738-.307.433-.317 1.05-.04 1.498.42.594.862 1.173 1.276 1.77.222.314.103.792-.26.94-.68.245-1.376.45-2.062.685-.486.164-.854.63-.908 1.137-.012.745-.006 1.49-.017 2.235.003.395-.398.713-.782.604-.683-.196-1.352-.438-2.03-.647-.528-.177-1.158.027-1.488.475-.426.57-.834 1.155-1.265 1.722-.234.31-.74.314-.974.003-.433-.567-.842-1.15-1.27-1.724-.337-.458-.983-.653-1.52-.464-.65.207-1.296.426-1.948.624-.395.142-.836-.176-.837-.592-.008-.686-.005-1.37-.003-2.058.012-.572-.373-1.125-.913-1.312-.673-.228-1.354-.438-2.026-.67-.37-.117-.53-.6-.313-.92.394-.595.833-1.16 1.247-1.74.326-.45.325-1.107.005-1.56-.416-.58-.843-1.154-1.252-1.74-.214-.322-.06-.794.305-.923.67-.243 1.353-.45 2.03-.668.48-.166.842-.625.907-1.128.026-.764-.01-1.528.02-2.29.02-.382.423-.658.788-.55.683.2 1.356.436 2.037.648.553.175 1.2-.063 1.523-.54.357-.5.724-.997 1.084-1.497.11-.158.246-.315.438-.373zM58.428 56.097c2.203 2.28 4.38 4.585 6.572 6.876-1.874.01-3.747-.003-5.62.006-.01 1.872.002 3.746-.005 5.62-2.556-2.74-5.114-5.476-7.666-8.217.51-.402.866-.947 1.23-1.475.434.1.843.285 1.276.38.844.193 1.756.064 2.504-.374 1.004-.572 1.627-1.678 1.708-2.817zM35 62.973c1.95-2.038 3.873-4.1 5.843-6.116.375 1.433 1.75 2.526 3.238 2.518.735.036 1.412-.274 2.102-.468.49.692.988 1.417 1.757 1.827-2.44 2.622-4.878 5.243-7.315 7.865-.007-1.874.005-3.747-.005-5.62-1.874-.012-3.747.002-5.62-.007z"/></g></svg>