<svg xmlns="http://www.w3.org/2000/svg" width="100" height="100" viewBox="0 0 100 100"><path d="M50 100C22.43 100 0 77.57 0 50S22.43 0 50 0s50 22.43 50 50-22.43 50-50 50zm0-94C25.738 6 6 25.738 6 50s19.738 44 44 44 44-19.738 44-44S74.262 6 50 6zM76.4 23.6H23.6c-1.988 0-3.6 1.612-3.6 3.6v45.6c0 1.987 1.612 3.6 3.6 3.6h52.8c1.988 0 3.6-1.612 3.6-3.6V27.2c0-1.99-1.61-3.6-3.6-3.6zm-9 2.4c1.322 0 2.4 1.076 2.4 2.4s-1.078 2.4-2.4 2.4c-1.323 0-2.4-1.076-2.4-2.4s1.077-2.4 2.4-2.4zm-6.6 0c1.323 0 2.4 1.076 2.4 2.4s-1.077 2.4-2.4 2.4-2.4-1.076-2.4-2.4 1.077-2.4 2.4-2.4zm15.6 46.8H23.6V33.2h52.8v39.6zm-2.4-42c-1.323 0-2.4-1.076-2.4-2.4S72.677 26 74 26s2.4 1.076 2.4 2.4-1.077 2.4-2.4 2.4zM48.75 39.64c.83-.112 1.678-.1 2.51-.004.008 2.31.004 4.62 0 6.93-.843-.042-1.685-.047-2.525.023.036-2.32 0-4.636.014-6.95zM39.744 41.884c.755-.326 1.51-.65 2.282-.937.917 2.135 1.8 4.287 2.674 6.44-.808.234-1.548.64-2.336.924-.847-2.152-1.8-4.263-2.62-6.426zM55.313 47.375c.872-2.145 1.755-4.288 2.67-6.417.775.268 1.53.597 2.283.922-.822 2.162-1.77 4.276-2.624 6.428-.783-.29-1.533-.67-2.33-.933zM32.324 47.53c.428-.69 1.125-1.266 1.755-1.805 1.594 1.678 3.308 3.242 4.873 4.943-.65.517-1.193 1.148-1.784 1.732-1.6-1.64-3.24-3.24-4.846-4.87zM65.923 45.768c.657.44 1.32 1.1 1.762 1.755-1.608 1.636-3.24 3.248-4.858 4.873-.564-.618-1.168-1.195-1.77-1.774 1.62-1.62 3.232-3.247 4.866-4.854zM28.444 53.187c2.166.803 4.267 1.77 6.417 2.618-.26.795-.69 1.527-.92 2.338-2.145-.89-4.297-1.77-6.44-2.67.29-.772.613-1.532.944-2.286zM65.143 55.805c2.153-.847 4.258-1.813 6.425-2.618.34.75.65 1.512.933 2.284-2.136.904-4.277 1.79-6.426 2.67-.248-.805-.664-1.54-.93-2.335zM50.53 62.468c-.205-.043-.414-.068-.63-.068-1.657 0-3 1.343-3 3s1.343 3 3 3c1.645 0 2.977-1.324 2.997-2.965l4.952-7.684-7.32 4.718z"/></svg>