<svg xmlns="http://www.w3.org/2000/svg" width="100" height="100" viewBox="0 0 100 100"><path d="M50 100C22.43 100 0 77.57 0 50S22.43 0 50 0s50 22.43 50 50-22.43 50-50 50zm0-94C25.738 6 6 25.738 6 50s19.738 44 44 44 44-19.738 44-44S74.262 6 50 6z"/><path fill="#020202" d="M80 65.783c-.243-.188-30.995-17.043-31.274-17.162l17.16 31.288c.034-4.706.007-9.414.013-14.12 4.7-.01 9.4 0 14.1-.005z"/><path d="M50.472 57.01c-1.116.396-2.312.627-3.563.627-5.867 0-10.64-4.77-10.64-10.638 0-5.867 4.773-10.64 10.64-10.64S57.546 41.134 57.546 47c0 1.152-.19 2.26-.53 3.3l3.337 1.827c.61-1.594.947-3.323.947-5.128 0-7.937-6.454-14.394-14.39-14.394-7.938 0-14.393 6.457-14.393 14.393 0 7.934 6.456 14.39 14.392 14.39 1.904 0 3.722-.374 5.388-1.05l-1.826-3.33zM56.527 68.053c-2.934 1.344-6.188 2.1-9.62 2.1-12.765 0-23.152-10.387-23.152-23.153 0-12.767 10.387-23.153 23.153-23.153C59.675 23.847 70.06 34.234 70.06 47c0 3.33-.713 6.497-1.982 9.36 1.124.615 2.23 1.226 3.3 1.812 1.562-3.403 2.438-7.187 2.438-11.17 0-14.838-12.072-26.91-26.908-26.91C32.07 20.093 20 32.163 20 47c0 14.835 12.07 26.906 26.908 26.906 4.084 0 7.957-.92 11.428-2.555l-1.81-3.297z"/></svg>