<svg xmlns="http://www.w3.org/2000/svg" width="100" height="100" viewBox="0 0 100 100"><path d="M50 100C22.43 100 0 77.57 0 50S22.43 0 50 0s50 22.43 50 50-22.43 50-50 50zm0-94C25.738 6 6 25.738 6 50s19.738 44 44 44 44-19.738 44-44S74.262 6 50 6zM61.777 27.043c-9.39-9.39-24.667-9.39-34.056 0-9.39 9.39-9.39 24.667 0 34.057 9.068 9.067 23.626 9.377 33.07.932l1.91 1.908c-.478 1.22-.228 2.65.756 3.633L73.53 77.65c1.325 1.323 3.473 1.323 4.796 0 1.324-1.325 1.324-3.474 0-4.798L68.254 62.777c-.982-.98-2.418-1.23-3.635-.756l-1.91-1.91c8.448-9.443 8.138-24-.933-33.067zM30.6 58.223c-7.804-7.804-7.804-20.5 0-28.303 7.802-7.803 20.5-7.803 28.302 0s7.803 20.5 0 28.303c-7.802 7.802-20.5 7.8-28.303 0zM42.778 45.125l-.573-8.585c-.107-1.673-.16-2.874-.16-3.603 0-.992.26-1.767.778-2.32.52-.556 1.204-.835 2.052-.835 1.028 0 1.714.356 2.06 1.066.348.71.522 1.736.522 3.074 0 .79-.042 1.59-.126 2.402l-.77 8.836c-.082 1.052-.263 1.858-.537 2.42-.275.562-.73.843-1.362.843-.644 0-1.092-.272-1.343-.815-.252-.545-.43-1.372-.54-2.483zm1.99 11.793c-.73 0-1.365-.234-1.908-.71-.544-.47-.815-1.13-.815-1.978 0-.74.26-1.37.78-1.892.52-.52 1.155-.778 1.908-.778.752 0 1.396.26 1.927.778.53.52.798 1.15.798 1.892 0 .836-.27 1.494-.807 1.972s-1.165.716-1.882.716zM32.54 71.37h24.422v2.713h-24.42zM37.967 77.286h13.568V80H37.967z"/></svg>