<svg xmlns="http://www.w3.org/2000/svg" width="100" height="100" viewBox="0 0 100 100"><path d="M50 100C22.43 100 0 77.57 0 50S22.43 0 50 0s50 22.43 50 50-22.43 50-50 50zm0-94C25.738 6 6 25.738 6 50s19.738 44 44 44 44-19.738 44-44S74.262 6 50 6zM66.338 33.662c.578.577 1.514.577 2.09 0l11.14-11.14c.577-.577.577-1.513 0-2.09-.575-.576-1.513-.576-2.087 0L66.34 31.573c-.576.578-.576 1.512 0 2.09zM58.13 40.737c-.67-.667-1.355-1.137-2.058-1.41-.705-.275-1.383-.336-2.033-.188-.65.147-1.235.48-1.753 1-.37.368-.64.778-.814 1.23-.175.452-.242.923-.2 1.414.036.49.198 1.007.48 1.55.28.542.68 1.07 1.192 1.585.518.517 1.05.92 1.6 1.208.55.288 1.08.45 1.596.487.515.038.994-.03 1.44-.202.445-.172.852-.442 1.22-.812.474-.47.79-1.024.948-1.655.16-.632.11-1.31-.148-2.04-.262-.722-.75-1.446-1.47-2.168zM76.87 31.485l-2.09-2.09-2.62 2.624c.363 1.73-.125 3.604-1.47 4.948-2.114 2.115-5.544 2.115-7.66 0-2.114-2.114-2.114-5.544 0-7.66 1.345-1.343 3.22-1.83 4.95-1.467l2.623-2.622-2.088-2.09c-1.44-1.44-16.313-1.44-17.756 0L21.08 52.81c-1.44 1.442-1.44 3.78 0 5.224L41.97 78.92c1.44 1.44 3.78 1.44 5.222 0l29.68-29.68c1.44-1.44 1.44-16.312-.002-17.755zM44.133 63.46c-.3.795-.823 1.567-1.573 2.317-.9.9-1.812 1.472-2.734 1.716-.66.17-1.322.18-1.988.03-.667-.148-1.193-.416-1.578-.8-.224-.226-.338-.493-.342-.81-.005-.314.113-.594.354-.833.194-.194.42-.298.68-.308.26-.012.56.06.898.207.407.173.773.29 1.103.352s.68.03 1.05-.087c.372-.12.756-.377 1.153-.773.547-.547.864-1.117.952-1.715.086-.596-.06-1.085-.442-1.468-.302-.303-.64-.455-1.013-.46-.374-.004-.755.09-1.148.282-.39.193-.887.48-1.488.855-.808.5-1.535.87-2.18 1.105-.648.234-1.277.307-1.89.212-.614-.097-1.185-.406-1.71-.933-.5-.5-.81-1.083-.925-1.747-.115-.662-.02-1.356.29-2.084.308-.73.81-1.44 1.512-2.142.56-.56 1.112-.975 1.66-1.242.547-.27 1.07-.424 1.57-.463.5-.04.937.006 1.313.135.376.13.686.313.926.553.22.22.34.497.36.827.02.332-.084.613-.316.848-.212.21-.424.316-.64.322-.215.004-.508-.05-.877-.162-.51-.178-.978-.248-1.402-.21s-.894.317-1.408.83c-.477.478-.756.966-.838 1.466-.083.504.022.9.316 1.194.183.185.39.29.623.324.233.033.483.012.752-.068s.52-.18.75-.305c.233-.123.606-.34 1.12-.646.635-.394 1.23-.728 1.792-1 .563-.27 1.092-.448 1.59-.532.5-.085.99-.05 1.47.104.482.15.95.46 1.41.92.552.55.906 1.188 1.062 1.912.155.722.084 1.48-.213 2.277zm9.6-9.166L48.72 59.31c-.403.4-.78.602-1.134.6-.354 0-.73-.202-1.128-.6l-6.848-6.85c-.266-.267-.442-.52-.532-.767-.09-.246-.09-.492.003-.737.092-.245.268-.497.53-.758l4.873-4.873c.294-.294.578-.448.85-.46.274-.013.517.086.73.298.214.215.315.46.304.733-.013.274-.166.557-.46.852l-4.158 4.158 2.236 2.236 3.828-3.828c.282-.28.556-.428.82-.44.266-.014.502.083.71.29.206.21.306.445.3.713-.006.267-.152.544-.438.83l-3.83 3.828 2.593 2.592 4.3-4.3c.288-.29.575-.44.856-.455.28-.012.535.094.76.316.215.217.315.465.305.746-.015.283-.167.57-.456.86zm8.117-8.478c-.33.778-.854 1.526-1.57 2.243-.713.712-1.467 1.234-2.26 1.568-.793.333-1.588.48-2.383.438-.798-.042-1.584-.26-2.365-.655-.78-.395-1.515-.935-2.196-1.62-.7-.7-1.242-1.442-1.625-2.227-.383-.785-.59-1.574-.618-2.365-.03-.792.122-1.57.45-2.334.33-.764.844-1.494 1.54-2.19.942-.944 1.946-1.563 3.008-1.858s2.118-.263 3.172.097c1.054.358 2.06 1.014 3.013 1.967.703.704 1.25 1.44 1.633 2.207.387.766.6 1.55.642 2.356.038.803-.108 1.595-.44 2.373z"/></svg>