<svg xmlns="http://www.w3.org/2000/svg" width="100" height="100" viewBox="0 0 100 100"><path d="M50 100C22.43 100 0 77.57 0 50S22.43 0 50 0s50 22.43 50 50-22.43 50-50 50zm0-94C25.738 6 6 25.738 6 50s19.738 44 44 44 44-19.738 44-44S74.262 6 50 6zM78.646 32.732l-7.3-6.366-7.3-6.366-7.3 6.366-7.3 6.366h7.99c-2.69 16.522-17.956 29.377-35.33 26.643-.764-.12-1.074.91-.322 1.17 21.62 7.523 46.528-4.838 50.13-27.812h6.732zM62.456 54.08c-2.245 2.074-4.755 3.883-7.474 5.395V80h7.474V54.08zM43.772 80h7.474V61.307c-2.375 1.012-4.875 1.81-7.474 2.366V80zM66.19 80h7.476V34.6h-.19c-1.17 5.795-3.717 11.04-7.282 15.47V80h-.003zM28.826 64.172c-2.538-.37-5.037-.967-7.473-1.803V80h7.473V64.172zM32.563 80h7.473V64.303c-1.7.205-3.43.313-5.19.313-.764 0-1.525-.028-2.283-.07V80z"/></svg>