<svg xmlns="http://www.w3.org/2000/svg" width="100" height="100" viewBox="0 0 100 100"><path d="M50 100C22.43 100 0 77.57 0 50S22.43 0 50 0s50 22.43 50 50-22.43 50-50 50zm0-94C25.738 6 6 25.738 6 50s19.738 44 44 44 44-19.738 44-44S74.262 6 50 6zM50 20c-16.542 0-30 13.458-30 30s13.458 30 30 30 30-13.458 30-30-13.458-30-30-30zm1.8 56.332V71.6h-3.6v4.732c-13.124-.89-23.643-11.406-24.532-24.53H28.4V48.2h-4.73c.887-13.124 11.406-23.643 24.53-24.532V28.4h3.6v-4.73c13.125.887 23.64 11.406 24.532 24.53H71.6v3.6h4.732c-.89 13.126-11.407 23.64-24.532 24.532z"/><path fill="#020201" d="M37.423 55.713c1.857-1.232 3.918-1.973 5.913-2.63.287-.095.572-.222.857-.315l.06-.037c.42-.145.82-.292 1.146-.473.014-.034.036-.097.06-.192-1.64-2.396-2.756-6.1-2.756-9.274 0-2.69.846-4.687 2.44-5.9-.688-.35-1.52-.483-2.416-.483-2.386 0-4.32.953-4.32 4.375 0 2.272.852 5.06 2.124 6.678-.013.128-.027.256-.05.383-.077.348-.198.737-.523.93-.365.217-.77.355-1.17.494-1.65.556-3.36 1.046-4.827 2.02-.763.502-1.28 1.5-1.564 2.356-.295.89-.416 1.758-.397 2.957h4.506c.284-.6.59-.674.913-.887zM66.04 51.318c-1.468-.973-3.18-1.48-4.83-2.036-.397-.14-.806-.286-1.168-.502-.326-.193-.448-.587-.522-.935-.033-.185-.055-.372-.063-.558 1.197-1.64 1.992-4.314 1.992-6.507 0-3.424-1.935-4.377-4.32-4.377-.907 0-1.75.14-2.444.5 1.582 1.215 2.422 3.205 2.422 5.885 0 3.09-1.037 6.647-2.613 9.06l.014.08c.04.19.074.285.095.335.347.19.76.344 1.223.506l.69.228c2.046.68 4.16 1.502 6.066 2.767.307.202.596.235.868.835h4.546c.018-1.2-.104-2.068-.396-2.957-.284-.855-.8-1.82-1.563-2.325z"/><path d="M61.785 56.854c-1.955-1.297-4.234-1.98-6.438-2.722-.533-.187-1.072-.384-1.56-.674-.435-.26-.597-.782-.696-1.247-.043-.245-.07-.495-.085-.744 1.598-2.185 2.657-5.75 2.657-8.675 0-4.564-2.578-5.836-5.76-5.836s-5.76 1.27-5.76 5.835c0 3.028 1.136 6.746 2.83 8.903-.016.17-.036.34-.066.512-.1.462-.263.982-.697 1.24-.488.287-1.027.47-1.56.658-2.203.74-4.482 1.396-6.438 2.692-1.017.67-1.706 1.962-2.086 3.103-.39 1.184-.55 2.7-.527 3.902H64.397c.023-1.2-.137-2.72-.527-3.902-.38-1.142-1.067-2.375-2.085-3.044z"/></svg>