<svg xmlns="http://www.w3.org/2000/svg" width="100" height="100" viewBox="0 0 100 100"><path d="M50 100C22.43 100 0 77.57 0 50S22.43 0 50 0s50 22.43 50 50-22.43 50-50 50zm0-94C25.738 6 6 25.738 6 50s19.738 44 44 44 44-19.738 44-44S74.262 6 50 6zM62.244 52.4l-11.972 7L38.3 66.402V38.397l11.972 7zM76.4 23.6H23.6c-1.988 0-3.6 1.612-3.6 3.6v45.6c0 1.987 1.612 3.6 3.6 3.6h52.8c1.988 0 3.6-1.61 3.6-3.6V27.2c0-1.99-1.61-3.6-3.6-3.6zm-9 2.4c1.322 0 2.398 1.076 2.398 2.4 0 1.324-1.076 2.4-2.398 2.4-1.323 0-2.4-1.076-2.4-2.4 0-1.324 1.077-2.4 2.4-2.4zm-6.6 0c1.323 0 2.4 1.076 2.4 2.4 0 1.324-1.077 2.4-2.4 2.4s-2.4-1.076-2.4-2.4c0-1.324 1.077-2.4 2.4-2.4zm15.6 46.8H23.6V33.2h52.8v39.6zm-2.4-42c-1.322 0-2.4-1.076-2.4-2.4 0-1.324 1.078-2.4 2.4-2.4s2.4 1.076 2.4 2.4c0 1.324-1.078 2.4-2.4 2.4z"/></svg>