<svg xmlns="http://www.w3.org/2000/svg" width="100" height="100" viewBox="0 0 100 100"><path d="M50 100C22.43 100 0 77.57 0 50S22.43 0 50 0s50 22.43 50 50-22.43 50-50 50zm0-94C25.738 6 6 25.738 6 50s19.738 44 44 44 44-19.738 44-44S74.262 6 50 6zM57.754 76.838c-1.04-.766-1.15-1.914-1.15-1.914l-.39-2.492h-12.43l-.39 2.49s-.108 1.15-1.148 1.916c-1.04.766-1.86 1.422-1.04 1.53.79.106 8.245.01 8.794 0 .55.01 8.003.106 8.793 0 .818-.108 0-.764-1.04-1.53zM36 56.923c3.32-.024 3.734-.825 4.816-4.16 1.996-5.26 10.985 1.378 5.414 3.683s-13.55.5-10.23.477zM70.046 22.253c-1.61-1.298-4.28-.66-5.962 1.428L47.05 47.884c-1.683 2.086-1.674 1.688-.064 2.985 1.61 1.298 1.223 1.392 2.904-.695l20.027-21.79c1.683-2.088 1.74-4.832.13-6.13zm-4.38 2.897s-.25-.29-1.08-.954c1.245-2.032 3.69-1.66 3.69-1.66-2.32 1.37-2.61 2.614-2.61 2.614zM77.6 30.432h-7.49l-3.31 3.6h9.6v28.8H23.6v-28.8h30.716l2.535-3.6H22.4c-1.325 0-2.4 1.075-2.4 2.4v34.8c0 1.325 1.075 2.4 2.4 2.4h55.2c1.326 0 2.4-1.075 2.4-2.4v-34.8c0-1.326-1.074-2.4-2.4-2.4z"/></svg>