<svg xmlns="http://www.w3.org/2000/svg" width="100" height="100" viewBox="0 0 100 100"><path d="M50 100C22.43 100 0 77.57 0 50S22.43 0 50 0s50 22.43 50 50-22.43 50-50 50zm0-94C25.738 6 6 25.738 6 50s19.738 44 44 44 44-19.738 44-44S74.262 6 50 6zM76.4 23.6H23.6c-1.988 0-3.6 1.612-3.6 3.6v45.6c0 1.987 1.612 3.6 3.6 3.6h52.8c1.988 0 3.6-1.61 3.6-3.6V27.2c0-1.99-1.61-3.6-3.6-3.6zm-9 2.4c1.322 0 2.398 1.076 2.398 2.4 0 1.324-1.076 2.4-2.398 2.4-1.323 0-2.4-1.076-2.4-2.4 0-1.324 1.077-2.4 2.4-2.4zm-6.6 0c1.323 0 2.4 1.076 2.4 2.4 0 1.324-1.077 2.4-2.4 2.4s-2.4-1.076-2.4-2.4c0-1.324 1.077-2.4 2.4-2.4zM39.604 72.8c.856-4.973 5.18-8.76 10.396-8.76s9.54 3.787 10.396 8.76H39.604zM76.4 71.435c0-1.166-.946-2.088-2.113-2.088H70.45c-.5-1.922-1.27-3.773-2.265-5.453l2.722-2.727c.825-.825.825-2.165 0-2.99l-4.48-4.482c-.825-.823-2.163-.825-2.985 0l-2.735 2.722c-1.68-.994-3.53-1.767-5.453-2.267v-3.837c0-1.165-.918-2.11-2.087-2.11h-6.333c-1.167 0-2.086.944-2.086 2.11v3.838c-1.923.5-3.773 1.272-5.453 2.266l-2.728-2.722c-.825-.825-2.166-.825-2.99 0l-4.482 4.48c-.825.825-.826 2.162 0 2.987l2.72 2.732c-.993 1.682-1.766 3.53-2.265 5.453h-3.838c-1.166 0-2.112.92-2.112 2.088V33.2h52.8v38.234zM74 30.8c-1.322 0-2.4-1.076-2.4-2.4 0-1.324 1.078-2.4 2.4-2.4s2.4 1.076 2.4 2.4c0 1.324-1.078 2.4-2.4 2.4z"/></svg>