<svg xmlns="http://www.w3.org/2000/svg" width="100" height="100" viewBox="0 0 100 100"><path d="M61.107 31.15c-7.983-7.982-20.974-7.983-28.957 0-7.984 7.984-7.984 20.974 0 28.958 7.983 7.983 20.974 7.984 28.957 0 7.984-7.984 7.984-20.974 0-28.957zm-24.092 4.686c-3.58 3.58-6.154 7.757-7.72 12.145-.342-4.886 1.53-10.146 5.554-14.17 3.967-3.966 9.138-5.845 13.966-5.57-4.262 1.577-8.315 4.11-11.8 7.596zM50 0C22.386 0 0 22.386 0 50s22.386 50 50 50 50-22.386 50-50S77.614 0 50 0zm30.983 79.983c-1.354 1.354-3.552 1.355-4.907 0L65.768 69.675c-1.005-1.005-1.26-2.472-.773-3.718l-1.953-1.953c-9.663 8.642-24.558 8.325-33.835-.953-9.607-9.604-9.607-25.237 0-34.844 9.607-9.608 25.24-9.608 34.845 0 9.278 9.277 9.596 24.172.953 33.835l1.954 1.956c1.243-.487 2.71-.232 3.717.773l10.308 10.306c1.354 1.356 1.354 3.553-.002 4.907z"/></svg>