<svg xmlns="http://www.w3.org/2000/svg" width="100" height="100" viewBox="0 0 100 100"><path d="M26 58h52V30H26v28zm14-3h-4v-9h4v9zm11 0h-5V42h5v13zm9 0h-5v-9h5v9zm9 0h-5V42h5v13zM48.913 34.067l9.498 6.085L70.5 31.406l1.407 1.944-13.412 9.705-9.704-6.215-15.583 8.002-1.11-2.127 16.816-8.648zM50 0C22.386 0 0 22.386 0 50s22.386 50 50 50 50-22.386 50-50S77.614 0 50 0zm10.794 73.944c-.79.106-8.242.01-8.793 0-.55.01-8.003.106-8.793 0-.82-.11 0-.767 1.04-1.53 1.04-.767 1.147-1.92 1.147-1.92L45.786 68h12.43l.39 2.496s.11 1.15 1.15 1.915c1.037.768 1.857 1.424 1.038 1.534zM82 63.6c0 1.326-1.074 2.4-2.4 2.4H24.4c-1.326 0-2.4-1.074-2.4-2.4V28.4c0-1.326 1.075-2.4 2.4-2.4h55.2c1.326 0 2.4 1.074 2.4 2.4v35.2z"/></svg>