<svg xmlns="http://www.w3.org/2000/svg" width="100" height="100" viewBox="0 0 100 100"><circle cx="52.15" cy="65.3" r="3.6"/><path d="M32 77h40V23H32v54zm29-10.618c0 .398-.172.618-.57.618h-1.308c-.17 1-.434 1.334-.772 1.906l.928.955c.28.282.28.75 0 1.03l-1.528 1.533c-.28.28-.738.284-1.02.003l-.9-.926c-.572.34-.83.604-1.83.774v1.31c0 .396-.373.416-.77.416h-2.16c-.4 0-1.07-.02-1.07-.417v-1.31c0-.17-1.107-.434-1.68-.77l-.842.927c-.28.28-.692.28-.974 0L45 70.9c-.282-.28-.27-.738.01-1.02l.934-.976c-.34-.572-.596-.906-.767-1.906H43.87c-.4 0-.87-.22-.87-.618v-2.16c0-.4.47-.222.87-.222h1.307c.17-1 .434-1.532.772-2.105l-.93-1.055c-.28-.28-.28-.798 0-1.08l1.53-1.557c.28-.28.737-.296 1.018-.015l.75.92c.574-.34 1.68-.61 1.68-.78V57.02c0-.397.672-1.02 1.07-1.02h2.16c.4 0 .772.622.772 1.02v1.31c1 .17 1.258.433 1.83.77l.917-.927c.28-.28.73-.28 1.012 0l1.52 1.528c.282.282.28.74 0 1.02l-.93 1.175c.34.573.602 1.105.772 2.105h1.308c.398 0 .57-.178.57.222v2.16zM54 30h13v12H54V30zm-17 0h13v2H37v-2zm0 5h13v2H37v-2zm0 5h13v2H37v-2zm0 4h30v3H37v-3zm0 6h30v3H37v-3zM50 0C22.386 0 0 22.386 0 50s22.386 50 50 50 50-22.386 50-50S77.614 0 50 0zm25 78.302c0 .5-.22.88-.492 1.15-.014.017-.05.033-.064.048s-.04.03-.056.045c-.272.273-.66.455-1.16.455H30.773C29.85 80 29 79.228 29 78.302V21.698c0-.925.85-1.698 1.774-1.698h42.453c.925 0 1.773.773 1.773 1.698v56.604z"/></svg>