<svg xmlns="http://www.w3.org/2000/svg" width="100" height="100" viewBox="0 0 100 100"><circle cx="76" cy="28.4" r="2.4"/><path d="M26 73h52V33H26v40zm31-17.516l9.12-3.58-9.12-3.53V44.73l13 5.63v3.114l-13 5.683v-3.673zM48.88 59l3.62-14.958c.19-.795.37-1.34.544-1.634.174-.294.51-.44 1.013-.44.433 0 .763.103.992.31.228.21.343.495.343.857 0 .268-.092.756-.272 1.466l-3.633 14.96c-.12.492-.226.882-.316 1.167s-.228.51-.414.667c-.186.16-.457.24-.81.24-.883 0-1.325-.382-1.325-1.14 0-.2.088-.698.26-1.494zM34 50.334l13-5.656v3.697l-9.094 3.504L47 55.46v3.67l-13-5.656v-3.14zM50 0C22.386 0 0 22.386 0 50s22.386 50 50 50 50-22.386 50-50S77.614 0 50 0zm32 73.4c0 1.988-1.61 3.6-3.6 3.6H25.6c-1.988 0-3.6-1.612-3.6-3.6V27.6c0-1.988 1.612-3.6 3.6-3.6h52.8c1.988 0 3.6 1.612 3.6 3.6v45.8z"/><circle cx="62.8" cy="28.4" r="2.4"/><path d="M69.4 30.8c1.322 0 2.4-1.076 2.4-2.4S70.722 26 69.4 26 67 27.076 67 28.4s1.077 2.4 2.4 2.4z"/></svg>