<svg xmlns="http://www.w3.org/2000/svg" width="100" height="100" viewBox="0 0 100 100"><path d="M50 25.453c-11.763 0-21.3 9.537-21.3 21.303 0 11.763 9.537 21.298 21.3 21.298 11.764 0 21.296-9.535 21.3-21.298 0-11.767-9.536-21.303-21.3-21.303zm14.358 18.714c-2.1 1.726-4.18 3.474-6.27 5.205-.06.05-.118.102-.158.168.592 2.574 1.254 5.136 1.874 7.706.47 1.29-.63 2.808-2.01 2.707-.478-.006-.894-.267-1.272-.526-2.053-1.296-4.105-2.594-6.16-3.89-.174-.106-.34-.24-.536-.304-2.33 1.4-4.622 2.868-6.943 4.28-.64.382-1.488.376-2.115-.026-.66-.393-1.067-1.204-.912-1.97.668-2.748 1.42-5.482 2.06-8.234-1.887-1.624-3.802-3.215-5.697-4.828-.43-.348-.896-.712-1.082-1.254-.456-1.088.265-2.507 1.458-2.677 2.84-.24 5.698-.34 8.53-.602.98-2.34 1.923-4.7 2.892-7.046.178-.47.387-.957.798-1.27.91-.78 2.507-.518 3.023.594 1.046 2.593 2.073 5.193 3.113 7.79.02.087.1.117.182.117 2.603.178 5.203.39 7.807.577.745.015 1.486.426 1.823 1.104.418.76.277 1.817-.407 2.38zM50 0C22.387 0 0 22.386 0 50c0 27.613 22.387 50 50 50s50-22.387 50-50c0-27.614-22.387-50-50-50zm17.557 64.392L49.952 82 32.38 64.53c-9.724-9.726-9.655-25.473.07-35.198 9.725-9.724 25.438-9.803 35.162-.08 9.723 9.727 9.67 25.414-.055 35.14z"/></svg>