<svg xmlns="http://www.w3.org/2000/svg" width="100" height="100" viewBox="0 0 100 100"><path d="M50 0C22.386 0 0 22.386 0 50s22.386 50 50 50 50-22.386 50-50S77.614 0 50 0zm28.983 78.983c-1.354 1.355-3.55 1.355-4.906 0l-10.31-10.31c-1.004-1.004-1.26-2.47-.772-3.717l-1.953-1.952c-9.664 8.642-24.56 8.325-33.837-.953-9.608-9.605-9.608-25.238 0-34.844 9.608-9.608 25.24-9.608 34.847 0 9.278 9.276 9.597 24.17.953 33.835l1.953 1.956c1.244-.487 2.712-.232 3.718.772l10.308 10.308c1.356 1.357 1.356 3.554 0 4.907zM46.818 32.126c-1.885 1.885-1.885 4.95 0 6.835 1.884 1.886 4.95 1.885 6.833 0 1.886-1.884 1.886-4.95 0-6.834-1.88-1.883-4.947-1.883-6.832 0zM59.108 30.15c-7.984-7.984-20.975-7.984-28.96 0-7.983 7.984-7.983 20.975 0 28.958s20.976 7.983 28.96 0c7.984-7.983 7.984-20.974 0-28.958zm-17.73 26.136l-.908 2.66c-.08.223-.14.387-.184.486-.044.1-.11.188-.206.27-.093.078-.22.118-.384.118-.168 0-.3-.044-.396-.128-.096-.082-.167-.188-.214-.308-.046-.122-.096-.28-.15-.477l-.635-2.164-.613 2.164c-.08.302-.17.528-.264.68-.095.153-.262.23-.5.23-.122 0-.226-.024-.31-.072s-.158-.115-.215-.203-.107-.19-.15-.313c-.044-.12-.077-.217-.102-.287l-.9-2.66c-.088-.25-.133-.422-.133-.517 0-.12.048-.227.143-.32.095-.096.212-.144.35-.144.185 0 .31.053.375.157.066.105.136.284.21.536l.723 2.48.66-2.306c.07-.24.122-.405.156-.493.033-.09.097-.173.19-.252.093-.08.222-.12.385-.12.165 0 .295.04.39.12.093.08.158.166.196.26.04.095.092.255.16.485l.658 2.306.732-2.48c.05-.18.088-.308.118-.39s.08-.15.15-.21.172-.092.305-.092.248.045.346.137c.097.095.145.202.145.328-.002.115-.044.288-.128.518zm6.77 0l-.907 2.66c-.078.223-.14.387-.182.486-.044.1-.112.188-.206.27-.094.078-.222.118-.384.118-.168 0-.3-.044-.397-.128-.094-.082-.166-.188-.213-.308-.046-.122-.096-.28-.15-.477l-.634-2.163-.614 2.163c-.083.302-.17.528-.266.682-.095.15-.262.228-.5.228-.122 0-.226-.022-.31-.07s-.158-.116-.214-.204c-.057-.09-.107-.19-.15-.313-.045-.12-.078-.216-.103-.285l-.898-2.66c-.09-.25-.135-.42-.135-.517 0-.12.047-.226.143-.32.095-.097.21-.143.35-.143.185 0 .31.05.375.157.065.104.135.283.208.535l.725 2.48.66-2.306c.07-.24.122-.404.156-.492.035-.09.1-.173.192-.252.093-.08.22-.12.384-.12.166 0 .295.04.39.12.093.08.158.166.196.26.038.095.09.255.16.485l.658 2.307.732-2.48c.048-.18.088-.308.118-.39s.08-.15.15-.21c.07-.062.173-.092.306-.092.132 0 .248.045.346.137.098.094.146.2.146.327-.003.113-.045.286-.13.516zm6.772 0l-.908 2.66c-.077.223-.14.387-.183.486-.045.1-.112.188-.206.27-.095.078-.222.118-.386.118-.168 0-.3-.044-.395-.128-.098-.082-.168-.188-.215-.308-.046-.122-.098-.28-.15-.477l-.636-2.164-.614 2.164c-.08.302-.17.528-.263.68-.096.153-.262.23-.5.23-.123 0-.226-.024-.312-.072-.085-.048-.157-.115-.214-.203s-.108-.19-.15-.313c-.045-.12-.078-.217-.103-.287l-.9-2.66c-.088-.25-.133-.422-.133-.517 0-.12.048-.227.143-.32s.21-.144.35-.144c.185 0 .31.053.374.157.067.105.138.284.21.536l.724 2.48.66-2.306c.07-.24.122-.405.157-.493.034-.09.1-.173.19-.252.093-.08.222-.12.386-.12s.295.04.39.12c.093.08.158.166.196.26.038.095.09.255.158.485l.66 2.306.73-2.48c.05-.18.09-.308.118-.39.03-.08.08-.15.15-.21s.173-.092.306-.092c.132 0 .247.045.346.137.098.095.146.202.146.328 0 .115-.042.288-.126.518zm.442-15.616c-2.385 2.382-6.024 2.748-8.803 1.112l-5.9 5.9 2.136 2.135c.472.473.472 1.236 0 1.71l-.854.853c-.47.472-1.236.474-1.708 0l-2.137-2.135-1.994 1.99c-.472.474-1.236.474-1.708 0l-.854-.852c-.47-.472-.47-1.236 0-1.708L44 39.22c-1.635-2.78-1.27-6.418 1.113-8.802 2.827-2.826 7.427-2.826 10.253 0 2.825 2.826 2.825 7.427 0 10.252z"/></svg>