<svg xmlns="http://www.w3.org/2000/svg" width="100" height="100" viewBox="0 0 100 100"><path d="M26 73h52V33H26v40zm15.58-28.356l15.215 6.076 13.148-4.373c1.205-.402 4.2-.3 4.522.872.35 1.27-2.092 3.216-3.292 3.616l-5.383 1.79C58.81 54.95 43.022 60.1 43.022 60.1c-2.055.34-11.017-.93-9.816-1.33 1.395-.464 9.082-3.143 13.278-4.594l-6.51-7.818 1.606-1.714zm-10.86 8.562l6.702 3.25-4.688 1.65L29.5 54.33l1.22-1.126zM50 0C22.386 0 0 22.386 0 50s22.386 50 50 50 50-22.386 50-50S77.614 0 50 0zm32 73.4c0 1.988-1.61 3.6-3.6 3.6H25.6c-1.988 0-3.6-1.612-3.6-3.6V27.6c0-1.988 1.612-3.6 3.6-3.6h52.8c1.988 0 3.6 1.612 3.6 3.6v45.8z"/><circle cx="62.8" cy="28.4" r="2.4"/><path d="M69.4 30.8c1.322 0 2.4-1.076 2.4-2.4S70.722 26 69.4 26 67 27.076 67 28.4s1.077 2.4 2.4 2.4z"/><circle cx="76" cy="28.4" r="2.4"/></svg>