<svg xmlns="http://www.w3.org/2000/svg" width="100" height="100" viewBox="0 0 100 100"><path d="M50 0C22.386 0 0 22.386 0 50s22.386 50 50 50 50-22.386 50-50S77.614 0 50 0zm-7.735 34.602l9.23-9.23c4.464-4.464 11.94-4.25 16.665.473 4.725 4.725 4.937 12.2.47 16.667l-9.227 9.228c-4.465 4.465-11.94 4.254-16.666-.472-1.645-1.644-2.73-3.624-3.273-5.693l.34-.34c.875-.875 2.002-1.367 3.196-1.49.268 1.728 1.088 3.427 2.46 4.8 3.224 3.223 8.255 3.435 11.22.47l9.227-9.228c2.964-2.963 2.752-7.995-.472-11.218-3.223-3.224-8.256-3.436-11.22-.473l-8.145 8.146c-1.727-.31-3.485-.298-5.178.048.396-.596.85-1.164 1.373-1.688zm10.59 23.686l-9.228 9.228c-4.465 4.465-11.942 4.254-16.667-.47-4.725-4.727-4.937-12.203-.47-16.668l9.227-9.228c4.465-4.465 11.94-4.254 16.666.47 1.646 1.645 2.73 3.625 3.274 5.694l-.34.34c-.876.875-2.002 1.365-3.196 1.49-.268-1.73-1.087-3.428-2.46-4.8-3.222-3.223-8.255-3.435-11.218-.472l-9.23 9.23c-2.962 2.963-2.75 7.994.472 11.218 3.223 3.224 8.256 3.434 11.22.472l8.144-8.145c1.728.308 3.486.3 5.18-.048-.396.597-.85 1.165-1.373 1.688zm17.58 22.876c-7.094 0-12.842-5.75-12.842-12.842s5.748-12.84 12.84-12.84c7.093 0 12.842 5.75 12.842 12.84s-5.75 12.842-12.84 12.842zM73 66v-5.192c0-1.5-1-2.714-2.5-2.714S68 59.31 68 60.808V66h-4.95c-1.5 0-2.715 1-2.715 2.5S61.55 71 63.05 71H68v4.737c0 1.5 1 2.714 2.5 2.714s2.5-1.213 2.5-2.713V71h4.978c1.5 0 2.715-1 2.716-2.5 0-1.5-1.217-2.5-2.716-2.5H73z"/></svg>