<svg xmlns="http://www.w3.org/2000/svg" width="100" height="100" viewBox="0 0 100 100"><circle cx="44.635" cy="39.307" r="6.932"/><path d="M59.107 30.15c-7.983-7.983-20.974-7.983-28.958 0-7.984 7.983-7.984 20.975 0 28.957 7.982 7.983 20.973 7.983 28.957 0 7.984-7.982 7.984-20.973 0-28.957zM44.505 57.867c-2.964 0-5.758.664-8.225 1.833 1.88-2.165 4.835-3.568 8.167-3.568 3.286 0 6.205 1.363 8.09 3.478-2.418-1.114-5.144-1.743-8.032-1.743zm8.248-10.398l-8.146 8.146-8.13-8.084c-4.5-4.5-4.47-11.786.032-16.286 4.5-4.5 11.77-4.536 16.27-.036 4.497 4.5 4.473 11.758-.027 16.26zM50 0C22.386 0 0 22.386 0 50s22.386 50 50 50 50-22.386 50-50S77.614 0 50 0zm28.983 78.982c-1.354 1.355-3.552 1.355-4.907 0L63.77 68.676c-1.006-1.006-1.26-2.473-.774-3.72l-1.953-1.952c-9.663 8.64-24.56 8.325-33.836-.953-9.608-9.604-9.608-25.237 0-34.843 9.606-9.608 25.238-9.608 34.844 0 9.28 9.276 9.598 24.17.956 33.834l1.952 1.954c1.245-.486 2.714-.23 3.72.775l10.307 10.305c1.354 1.356 1.354 3.554-.002 4.907z"/></svg>