<svg xmlns="http://www.w3.org/2000/svg" width="100" height="100" viewBox="0 0 100 100"><path d="M50 0C22.386 0 0 22.386 0 50s22.386 50 50 50 50-22.386 50-50S77.614 0 50 0zM38 50h-4v-3h4v3zm0-6H27v-3h11v3zm0-6H23v-3h15v3zm35 37.2c0 2.65-2.058 4.8-4.71 4.8H45.493C42.842 80 41 77.85 41 75.2V24.8c0-2.65 1.84-4.8 4.492-4.8h22.8C70.94 20 73 22.15 73 24.8V33h-3v-3H44v40h26V54h3v21.2zm6.017-30.4l1.213.507c.367.15.542.573.39.94l-.828 1.995c-.15.367-.574.542-.94.39l-1.214-.5c-.4.53-.882 1.015-1.423 1.424l.5 1.208c.153.368-.014.786-.38.938l-1.997.826c-.367.153-.78-.025-.932-.392l-.5-1.21c-.672.094-1.354.092-2.014 0l-.506 1.212c-.152.367-.573.54-.94.39L67.45 51.7c-.367-.152-.543-.574-.39-.942l.5-1.213c-.532-.4-1.016-.882-1.425-1.423l-1.208.5c-.368.152-.786-.014-.938-.382l-.828-1.995c-.152-.368.025-.782.394-.933l1.208-.5c-.093-.67-.092-1.354.003-2.013l-1.214-.506c-.367-.152-.54-.573-.39-.94l.827-1.996c.153-.367.576-.542.942-.39l1.214.5c.4-.53.882-1.016 1.422-1.424l-.5-1.208c-.152-.368.014-.786.38-.937l1.997-.828c.367-.152.78.025.933.393l.5 1.208c.67-.094 1.354-.092 2.013.002l.508-1.213c.152-.367.573-.54.94-.39l1.995.828c.367.152.542.574.39.94l-.5 1.215c.53.4 1.016.882 1.424 1.422l1.21-.5c.366-.152.783.015.936.384l.827 1.996c.152.368-.025.78-.394.933l-1.208.5c.094.67.092 1.352 0 2.01zM54.51 27h4.802c.33 0 .6-.668.6-1s-.27-1-.6-1h-4.8c-.332 0-.6.668-.6 1s.268 1 .6 1z"/><circle cx="56.712" cy="74.759" r="2.4"/><circle cx="71.892" cy="43.8" r="3.6"/></svg>