<svg xmlns="http://www.w3.org/2000/svg" width="100" height="100" viewBox="0 0 100 100"><path d="M26 73h52V33H26v40zm48.5-17.53c-2.137.904-4.278 1.79-6.427 2.67-.247-.805-.663-1.54-.93-2.335 2.152-.847 4.257-1.813 6.424-2.618.34.75.652 1.51.933 2.284zm-6.577-9.702c.657.44 1.32 1.1 1.762 1.755-1.608 1.636-3.24 3.248-4.858 4.873-.564-.618-1.168-1.195-1.77-1.774 1.62-1.62 3.232-3.247 4.866-4.854zm-7.94-4.81c.775.268 1.53.597 2.283.922-.822 2.162-1.77 4.276-2.624 6.428-.783-.29-1.533-.67-2.33-.933.874-2.144 1.756-4.287 2.67-6.417zm-9.234-1.318c.83-.112 1.678-.1 2.51-.004.008 2.31.004 4.62 0 6.93-.843-.042-1.686-.047-2.525.023.036-2.32 0-4.636.014-6.95zM51.9 62.4c.216 0 .426.024.63.067l7.318-4.717-4.952 7.684c-.02 1.64-1.352 2.965-2.997 2.965-1.658 0-3-1.344-3-3s1.343-3 3-3zm-7.874-21.453c.917 2.135 1.8 4.287 2.674 6.44-.808.234-1.548.64-2.336.924-.846-2.152-1.8-4.263-2.62-6.426.755-.326 1.51-.65 2.282-.937zm-7.947 4.778c1.594 1.678 3.308 3.242 4.873 4.943-.65.517-1.193 1.148-1.784 1.732-1.6-1.64-3.24-3.24-4.846-4.87.428-.69 1.125-1.266 1.755-1.805zm-5.636 7.462c2.166.803 4.267 1.77 6.417 2.618-.26.795-.69 1.527-.92 2.338-2.145-.89-4.297-1.77-6.44-2.67.29-.772.613-1.532.944-2.286z"/><circle cx="62.8" cy="28.4" r="2.4"/><path d="M69.4 30.8c1.322 0 2.4-1.076 2.4-2.4S70.722 26 69.4 26 67 27.076 67 28.4s1.077 2.4 2.4 2.4z"/><circle cx="76" cy="28.4" r="2.4"/><path d="M50 0C22.386 0 0 22.386 0 50s22.386 50 50 50 50-22.386 50-50S77.614 0 50 0zm32 73.4c0 1.988-1.61 3.6-3.6 3.6H25.6c-1.988 0-3.6-1.612-3.6-3.6V27.6c0-1.988 1.612-3.6 3.6-3.6h52.8c1.988 0 3.6 1.612 3.6 3.6v45.8z"/></svg>