<svg xmlns="http://www.w3.org/2000/svg" width="100" height="100" viewBox="0 0 100 100"><path d="M69.4 30.8c1.322 0 2.4-1.076 2.4-2.4S70.722 26 69.4 26 67 27.076 67 28.4s1.077 2.4 2.4 2.4zM26 73h52V33H26v40zm35.38-10.02c-.01 1.872.002 3.746-.005 5.62-2.556-2.74-5.114-5.476-7.666-8.217.51-.402.866-.947 1.23-1.475.434.1.843.285 1.276.38.844.193 1.756.064 2.504-.374 1.003-.572 1.626-1.678 1.707-2.817 2.203 2.28 4.38 4.585 6.572 6.876-1.874.01-3.747-.003-5.62.006zM44.375 47.69c-.416-.582-.843-1.155-1.252-1.742-.214-.32-.06-.793.305-.922.67-.243 1.353-.45 2.03-.668.48-.166.842-.625.907-1.128.026-.763-.01-1.527.02-2.29.02-.38.423-.657.788-.55.683.202 1.356.437 2.037.65.553.174 1.2-.064 1.523-.54.357-.502.723-.998 1.084-1.498.11-.16.245-.318.438-.375.272-.097.567.055.726.28.4.538.792 1.082 1.187 1.625.332.458.965.674 1.506.504.678-.22 1.352-.45 2.033-.654.37-.108.768.183.785.565.015.7.02 1.403.013 2.104-.012.558.363 1.093.88 1.29.69.227 1.39.438 2.072.685.362.128.512.6.3.918-.4.59-.836 1.158-1.25 1.738-.307.433-.317 1.05-.04 1.498.42.594.862 1.173 1.276 1.77.222.314.103.792-.26.94-.68.245-1.376.45-2.062.685-.486.164-.854.63-.908 1.137-.012.745-.006 1.49-.017 2.235.003.395-.398.713-.782.604-.683-.196-1.352-.438-2.03-.647-.528-.177-1.158.027-1.488.475-.426.57-.834 1.155-1.265 1.722-.234.31-.74.314-.975.003-.432-.567-.84-1.15-1.268-1.724-.338-.458-.984-.653-1.52-.464-.65.207-1.297.426-1.95.624-.394.142-.835-.176-.836-.592-.008-.686-.005-1.37-.003-2.058.012-.572-.373-1.125-.913-1.312-.673-.228-1.354-.438-2.026-.67-.37-.117-.53-.6-.313-.92.394-.595.833-1.16 1.247-1.74.326-.448.325-1.106.005-1.558zm-1.532 9.166c.375 1.433 1.75 2.526 3.238 2.518.735.036 1.412-.274 2.102-.468.49.692.988 1.417 1.757 1.827-2.44 2.622-4.878 5.243-7.315 7.865-.007-1.873.005-3.746-.005-5.62-1.874-.01-3.747.004-5.62-.006 1.95-2.037 3.873-4.1 5.843-6.116z"/><circle cx="62.8" cy="28.4" r="2.4"/><circle cx="76" cy="28.4" r="2.4"/><path d="M50 0C22.386 0 0 22.386 0 50s22.386 50 50 50 50-22.386 50-50S77.614 0 50 0zm32 73.4c0 1.988-1.61 3.6-3.6 3.6H25.6c-1.988 0-3.6-1.612-3.6-3.6V27.6c0-1.988 1.612-3.6 3.6-3.6h52.8c1.988 0 3.6 1.612 3.6 3.6v45.8z"/></svg>