<svg xmlns="http://www.w3.org/2000/svg" width="100" height="100" viewBox="0 0 100 100"><path d="M50 0C22.386 0 0 22.386 0 50s22.386 50 50 50 50-22.386 50-50S77.614 0 50 0zm-3.092 73.906C32.07 73.906 20 61.836 20 47c0-14.838 12.07-26.91 26.908-26.91 14.836 0 26.908 12.072 26.908 26.91 0 3.984-.878 7.766-2.44 11.17-1.066-.586-2.174-1.195-3.298-1.81 1.27-2.865 1.983-6.032 1.983-9.362 0-12.767-10.385-23.153-23.152-23.153-12.766 0-23.153 10.387-23.153 23.153 0 12.767 10.387 23.153 23.153 23.153 3.43 0 6.686-.755 9.62-2.1l1.808 3.3c-3.47 1.636-7.344 2.556-11.428 2.556zm0-37.546c-5.865 0-10.637 4.772-10.637 10.638s4.773 10.637 10.64 10.637c1.25 0 2.446-.23 3.562-.626l1.826 3.33c-1.666.675-3.484 1.05-5.39 1.05-7.936 0-14.39-6.457-14.39-14.392 0-7.936 6.455-14.393 14.39-14.393 7.938 0 14.393 6.457 14.393 14.393 0 1.806-.336 3.534-.946 5.128l-3.34-1.826c.342-1.04.533-2.15.533-3.302 0-5.866-4.772-10.638-10.638-10.638zm18.977 43.55L48.725 48.62c.28.118 31.032 16.973 31.275 17.16-4.7.005-9.4-.002-14.103.005-.005 4.707.023 9.415-.012 14.122z"/></svg>