<svg xmlns="http://www.w3.org/2000/svg" width="100" height="100" viewBox="0 0 100 100"><path d="M53.126 52.373c-.282.012-.568.164-.858.453l-4.3 4.3-2.592-2.59 3.83-3.83c.285-.285.43-.562.437-.83.006-.267-.094-.504-.3-.71s-.444-.306-.71-.293c-.265.013-.54.16-.82.44l-3.828 3.83-2.237-2.237 4.158-4.158c.295-.294.448-.578.46-.852s-.088-.518-.304-.733c-.21-.212-.454-.312-.727-.3-.273.014-.557.168-.852.462l-4.873 4.873c-.262.26-.437.514-.528.757-.092.245-.092.49-.003.737.09.246.266.5.53.768l6.85 6.85c.397.395.774.597 1.128.598.354.002.73-.198 1.134-.6l5.014-5.015c.292-.292.44-.577.456-.86.012-.28-.09-.53-.305-.744-.226-.224-.48-.33-.76-.317zM43.284 59.275c-.46-.46-.93-.768-1.41-.92-.48-.154-.97-.188-1.47-.103s-1.028.262-1.59.534c-.562.27-1.158.604-1.793.997-.513.308-.885.522-1.118.646-.232.123-.483.225-.75.304-.27.08-.52.103-.753.068-.233-.033-.44-.14-.623-.323-.294-.295-.4-.692-.316-1.193.083-.502.363-.99.84-1.468.514-.514.983-.79 1.408-.83.424-.038.892.03 1.402.21.368.11.66.165.876.16.216-.004.428-.112.64-.323.232-.233.337-.515.316-.844-.02-.332-.14-.61-.36-.828-.24-.24-.55-.424-.926-.553-.376-.128-.814-.174-1.314-.135s-1.023.194-1.57.462c-.546.27-1.1.684-1.66 1.243-.7.7-1.203 1.412-1.512 2.14-.31.728-.404 1.423-.29 2.085.117.663.426 1.246.927 1.748.526.524 1.096.836 1.71.93.613.096 1.242.025 1.89-.21.645-.237 1.373-.605 2.18-1.106.6-.377 1.097-.662 1.488-.855.393-.192.774-.286 1.148-.283.374.006.71.158 1.013.46.38.383.528.87.442 1.468-.088.596-.405 1.168-.952 1.715-.397.396-.78.653-1.153.773-.37.118-.72.146-1.05.087-.33-.062-.697-.178-1.104-.352-.34-.15-.64-.22-.898-.208-.26.01-.487.113-.68.308-.242.24-.36.518-.355.832.004.316.12.585.342.81.383.384.91.65 1.577.802.667.148 1.33.138 1.988-.032.924-.244 1.836-.815 2.735-1.714.75-.75 1.274-1.522 1.573-2.318.297-.797.37-1.554.212-2.273-.156-.727-.51-1.364-1.06-1.915zM60.013 38.88c-.953-.954-1.96-1.61-3.013-1.968s-2.11-.39-3.173-.096c-1.06.295-2.063.915-3.008 1.858-.696.696-1.21 1.425-1.538 2.19s-.48 1.543-.45 2.334c.028.79.233 1.58.618 2.364.382.785.924 1.527 1.624 2.228.684.684 1.417 1.224 2.198 1.62.78.396 1.567.614 2.363.655.797.042 1.59-.104 2.384-.438s1.547-.855 2.26-1.57c.717-.716 1.24-1.464 1.57-2.243.332-.778.48-1.57.438-2.373-.042-.804-.256-1.59-.642-2.354-.384-.766-.93-1.502-1.633-2.206zm-.266 6.066c-.16.63-.475 1.184-.948 1.656-.368.37-.775.64-1.223.81-.443.173-.924.24-1.437.204-.516-.037-1.047-.2-1.596-.488-.55-.288-1.082-.69-1.6-1.21-.514-.513-.912-1.04-1.193-1.583-.28-.542-.442-1.06-.48-1.55-.04-.49.027-.962.2-1.414.176-.45.446-.86.816-1.23.517-.518 1.102-.85 1.75-1 .652-.148 1.33-.087 2.035.187.704.273 1.39.744 2.057 1.41.722.723 1.21 1.446 1.47 2.17.26.728.31 1.406.15 2.04zM50 0C22.386 0 0 22.386 0 50s22.386 50 50 50 50-22.386 50-50S77.614 0 50 0zm26.87 49.24L47.193 78.92c-1.442 1.44-3.78 1.44-5.222 0L21.082 58.03c-1.442-1.44-1.442-3.78 0-5.223L50.76 23.13c1.44-1.442 16.314-1.442 17.755 0l2.09 2.088-2.624 2.623c-1.73-.363-3.605.125-4.95 1.47-2.114 2.114-2.114 5.544 0 7.658 2.116 2.115 5.546 2.115 7.66 0 1.345-1.344 1.833-3.218 1.47-4.95l2.62-2.622 2.09 2.09c1.442 1.442 1.442 16.313 0 17.755zm2.697-26.72l-11.14 11.142c-.576.577-1.51.577-2.09 0-.575-.577-.575-1.512 0-2.088l11.143-11.14c.574-.578 1.512-.578 2.088 0 .576.574.576 1.51 0 2.087z"/></svg>