<svg xmlns="http://www.w3.org/2000/svg" width="100" height="100" viewBox="0 0 100 100"><path d="M50 0C22.386 0 0 22.386 0 50s22.386 50 50 50 50-22.386 50-50S77.614 0 50 0zM29 80h-8V62.37c3 .835 5 1.43 8 1.802V80zm11 0h-7V64.546c0 .04 1.282.07 2.046.07 1.76 0 2.954-.108 4.954-.314V80zm11 0h-7V63.673c2-.557 5-1.354 7-2.367V80zm11 0h-7V59.475c3-1.512 5-3.32 7-5.395V80zm12 0h-8V50.07C70 45.64 72.305 40 73.477 35H74v45zm-2.085-47c-3.604 23-28.51 35.203-50.13 27.68-.752-.262-.443-1.223.32-1.104C39.48 62.31 54.746 49 57.436 33h-7.988l7.3-6.5 7.3-6.433 7.3 6.466 7.3 6.467h-6.732z"/></svg>