<svg xmlns="http://www.w3.org/2000/svg" width="100" height="100" viewBox="0 0 100 100"><path d="M58.902 29.92c-7.804-7.803-20.5-7.803-28.303 0s-7.804 20.5 0 28.302 20.5 7.804 28.302 0c7.803-7.803 7.803-20.5 0-28.302zM46.652 56.2c-.54.48-1.167.718-1.884.718-.73 0-1.365-.235-1.908-.71-.544-.47-.815-1.13-.815-1.978 0-.74.26-1.37.78-1.89.52-.522 1.155-.78 1.908-.78.752 0 1.396.26 1.927.78.53.52.798 1.15.798 1.89 0 .836-.27 1.494-.807 1.97zm.68-19.875l-.77 8.836c-.084 1.053-.265 1.86-.54 2.42-.274.563-.728.844-1.36.844-.646 0-1.094-.272-1.345-.815-.25-.546-.43-1.373-.54-2.484l-.572-8.585c-.107-1.672-.16-2.873-.16-3.602 0-.992.26-1.767.778-2.32.52-.556 1.204-.835 2.052-.835 1.028 0 1.714.356 2.06 1.066.348.71.522 1.735.522 3.073 0 .79-.04 1.59-.126 2.402zM50 0C22.386 0 0 22.386 0 50s22.386 50 50 50 50-22.386 50-50S77.614 0 50 0zm2 80H38v-3h14v3zm5-6H33v-3h24v3zm21.327 3.647c-1.323 1.324-3.47 1.324-4.796 0L63.458 67.572c-.983-.982-1.232-2.415-.756-3.634l-1.908-1.908c-9.445 8.445-24.003 8.137-33.07-.932-9.39-9.39-9.39-24.667 0-34.056 9.39-9.39 24.668-9.39 34.057 0 9.067 9.066 9.38 23.624.93 33.068l1.91 1.91c1.217-.475 2.65-.226 3.635.756L78.328 72.85c1.324 1.326 1.324 3.474 0 4.797z"/></svg>