<svg xmlns="http://www.w3.org/2000/svg" width="100" height="100" viewBox="0 0 100 100"><path d="M76.332 48C75.442 35 65 24.557 52 23.668V28h-4v-4.332C35 24.558 24.557 35 23.668 48H28v4h-4.332C24.558 65 35 75.442 48 76.332V72h4v4.332C65 75.442 75.442 65 76.332 52H72v-4h4.332zm-43.934 5.843c.284-.855.8-1.954 1.564-2.456 1.466-.975 3.176-1.515 4.828-2.07.398-.14.804-.303 1.168-.52.325-.192.446-.594.522-.942.023-.127.038-.262.05-.39-1.27-1.618-2.123-4.41-2.123-6.68 0-3.424 1.934-4.378 4.32-4.378.895 0 1.728.133 2.417.482-1.595 1.213-2.44 3.208-2.44 5.9 0 3.174 1.115 6.878 2.756 9.274-.025.096-.047.157-.062.192-.327.18-.726.326-1.147.474l-.058.036c-.285.095-.57.222-.857.315-1.994.66-4.056 1.6-5.913 2.832-.323.214-.628.088-.914 1.088h-4.506c-.02-2 .102-2.27.396-3.157zM50 64H35.602c-.024-1 .136-2.818.527-4.002.38-1.14 1.068-2.483 2.085-3.152 1.955-1.298 4.234-1.977 6.438-2.718.532-.188 1.072-.383 1.56-.67.433-.258.595-.786.696-1.248.03-.17.05-.344.065-.514-1.694-2.158-2.83-5.877-2.83-8.906 0-4.564 2.578-5.835 5.76-5.835s5.76 1.27 5.76 5.836c0 2.925-1.06 6.49-2.657 8.676.014.25.042.5.086.745.1.466.263.99.697 1.248.486.29 1.026.487 1.56.674 2.202.74 4.48 1.424 6.437 2.722 1.017.67 1.705 2.003 2.086 3.145.39 1.182.55 3 .525 4H50zm13.452-7c-.272-1-.563-.833-.87-1.034-1.906-1.265-4.022-2.187-6.067-2.866l-.69-.28c-.463-.163-.877-.34-1.223-.53-.02-.05-.055-.16-.096-.348l-.014-.088c1.576-2.41 2.613-5.972 2.613-9.062 0-2.68-.84-4.672-2.422-5.888.696-.36 1.537-.5 2.445-.5 2.386 0 4.32.954 4.32 4.378 0 2.193-.796 4.868-1.993 6.507.01.185.03.372.063.557.074.348.196.74.522.935.363.217.77.363 1.168.502 1.652.556 3.362 1.063 4.83 2.036.76.503 1.278 1.67 1.562 2.523.296.888.416 1.157.398 3.157h-4.546zM50 0C22.386 0 0 22.386 0 50s22.386 50 50 50 50-22.386 50-50S77.614 0 50 0zm0 80c-16.542 0-30-13.458-30-30s13.458-30 30-30 30 13.458 30 30-13.458 30-30 30z"/></svg>