<svg xmlns="http://www.w3.org/2000/svg" width="100" height="100" viewBox="0 0 100 100"><circle cx="60.8" cy="28.4" r="2.4"/><path d="M24 73h52V33H24v40zm14-20.6V38.397l12.122 7L62.17 52.4l-12.085 7L38 66.404V52.4zM67.4 30.8c1.322 0 2.4-1.076 2.4-2.4S68.722 26 67.4 26 65 27.076 65 28.4s1.077 2.4 2.4 2.4z"/><circle cx="74" cy="28.4" r="2.4"/><path d="M50 0C22.386 0 0 22.386 0 50s22.386 50 50 50 50-22.386 50-50S77.614 0 50 0zm30 73.4c0 1.988-1.61 3.6-3.6 3.6H23.6c-1.988 0-3.6-1.612-3.6-3.6V27.6c0-1.988 1.612-3.6 3.6-3.6h52.8c1.988 0 3.6 1.612 3.6 3.6v45.8z"/></svg>