<svg xmlns="http://www.w3.org/2000/svg" width="100" height="100" viewBox="0 0 100 100"><path d="M50 64.24c-5.217 0-9.54 3.76-10.396 8.76h20.79c-.855-5-5.177-8.76-10.394-8.76z"/><circle cx="60.8" cy="28.4" r="2.4"/><path d="M67.4 30.8c1.322 0 2.4-1.076 2.4-2.4S68.722 26 67.4 26 65 27.076 65 28.4s1.077 2.4 2.4 2.4z"/><circle cx="74" cy="28.4" r="2.4"/><path d="M50 0C22.386 0 0 22.386 0 50s22.386 50 50 50 50-22.386 50-50S77.614 0 50 0zm30 73.4c0 1.988-1.61 3.6-3.6 3.6H23.6c-1.988 0-3.6-1.612-3.6-3.6V27.6c0-1.988 1.612-3.6 3.6-3.6h52.8c1.988 0 3.6 1.612 3.6 3.6v45.8zM24 71.435c0-1.168.546-2.435 1.712-2.435h3.838c.5-2 1.27-3.6 2.265-5.28l-2.72-2.645c-.826-.825-.825-2.118 0-2.943l4.482-4.46c.824-.825 2.165-.814 2.99.01l2.854 2.728c1.68-.995 3.58-1.76 5.58-2.26v-3.84c0-1.164.666-2.31 1.832-2.31h6.333C54.335 48 55 49.147 55 50.312v3.837c2 .5 3.9 1.27 5.58 2.265l2.797-2.722c.824-.825 2.193-.823 3.02 0l4.495 4.483c.825.825.833 2.165.008 2.99l-2.717 2.554c.993 1.68 1.77 3.28 2.27 5.28h3.835C75.454 69 76 70.267 76 71.433V33H24v38.435z"/></svg>