<svg xmlns="http://www.w3.org/2000/svg" width="100" height="100" viewBox="0 0 100 100"><path d="M65.666 25.15s.29-1.244 2.61-2.613c0 0-2.445-.373-3.69 1.66.83.663 1.08.953 1.08.953zM50 0C22.386 0 0 22.386 0 50s22.386 50 50 50 50-22.386 50-50S77.614 0 50 0zm20.046 22.253c1.61 1.298 1.553 4.042-.128 6.13L49.89 50.173c-1.68 2.086-1.292 1.993-2.903.695-1.61-1.297-1.62-.9.063-2.985L64.085 23.68c1.68-2.085 4.35-2.725 5.96-1.427zM46.23 56.443c-5.57 2.307-13.55.505-10.23.48 3.32-.025 3.734-.826 4.816-4.16 1.996-5.26 10.985 1.378 5.414 3.68zM58.793 78.37c-.79.105-8.242.01-8.793 0-.55.01-8.003.105-8.793 0-.82-.11 0-.768 1.04-1.532 1.04-.766 1.147-2.13 1.147-2.13l.39-2.708h12.43l.39 2.708s.11 1.257 1.15 2.022c1.038.766 1.858 1.53 1.04 1.64zM80 67.63C80 68.957 78.926 70 77.6 70H22.4c-1.325 0-2.4-1.043-2.4-2.368v-34.8C20 31.506 21.075 30 22.4 30h34.45l-2.534 4H24v29h52V34h-9.2l3.31-4h7.49c1.326 0 2.4 1.506 2.4 2.832v34.8z"/></svg>