<svg xmlns="http://www.w3.org/2000/svg" width="100" height="100" viewBox="0 0 100 100"><path d="M67.36 17.16C53.52 3.316 31 3.316 17.16 17.16c-13.84 13.84-13.84 36.36 0 50.2 13.367 13.368 34.826 13.823 48.748 1.374l2.814 2.814c-.7 1.795-.334 3.908 1.115 5.357l14.85 14.85c1.953 1.954 5.12 1.953 7.07 0 1.954-1.95 1.954-5.117 0-7.07l-14.85-14.848c-1.448-1.45-3.563-1.816-5.356-1.115l-2.816-2.816C81.186 51.984 80.73 30.526 67.36 17.16zM21.4 63.12c-11.5-11.502-11.5-30.216 0-41.718C32.904 9.9 51.62 9.9 63.12 21.402s11.502 30.217 0 41.72-30.217 11.5-41.72-.002zM28.41 28.152c5.023-5.024 10.862-8.67 17.002-10.945-6.956-.397-14.406 2.31-20.123 8.026-5.797 5.796-8.496 13.375-8.004 20.416 2.257-6.323 5.964-12.34 11.123-17.498z"/></svg>