<svg xmlns="http://www.w3.org/2000/svg" width="100" height="100" viewBox="0 0 100 100"><path d="M62.925 93.344c-1.734-1.275-1.918-3.19-1.918-3.19L60.357 86H39.644l-.652 4.153s-.18 1.915-1.913 3.19c-1.732 1.275-3.1 2.37-1.732 2.553 1.317.178 13.74.016 14.656 0 .92.016 13.34.178 14.656 0 1.366-.183 0-1.275-1.73-2.552zM22.75 49.495h8v15h-8zM39.75 42.495h8v22h-8zM55.752 49.495h8v15h-8zM70.752 42.495h8v22h-8zM44.648 34.055l16.172 10.36L83.174 28.24 80.828 25 60.684 39.576l-15.83-10.14-28.028 14.41 1.85 3.547zM96 16H4c-2.21 0-4 1.79-4 4v58c0 2.21 1.79 4 4 4h92c2.21 0 4-1.79 4-4V20c0-2.21-1.79-4-4-4zm-2 54H6V22h88v48z"/></svg>