<svg xmlns="http://www.w3.org/2000/svg" width="100" height="100" viewBox="0 0 100 100"><path d="M88.208 2.83c0-1.542-1.287-2.83-2.83-2.83H14.622c-1.542 0-2.83 1.288-2.83 2.83v94.34c0 1.543 1.288 2.83 2.83 2.83h70.754c.833 0 1.467-.303 1.92-.758.027-.023.053-.05.078-.075.023-.024.053-.052.074-.078.454-.453.758-1.087.758-1.92V2.83zm-5.66 91.51H17.452V5.66h65.094v88.68zM25.167 16.5H46.5v4H25.167zM53.833 16h21.5v20h-21.5zM25.167 24.5H46.5v4H25.167zM25.167 32.5H46.5v4H25.167zM25.167 40.5h50.167v4H25.167zM25.167 50.5h50.167v4H25.167zM64.05 72.516h-2.18c-.284-1.094-.724-2.145-1.287-3.1l1.546-1.55c.468-.468.468-1.23 0-1.698l-2.546-2.547c-.47-.468-1.23-.468-1.697 0l-1.554 1.547c-.954-.563-2.005-1.003-3.1-1.287V61.7c0-.663-.52-1.2-1.185-1.2h-3.6c-.663 0-1.186.537-1.186 1.2v2.18c-1.092.284-2.144.722-3.098 1.286l-1.55-1.545c-.47-.468-1.23-.468-1.7 0l-2.545 2.546c-.47.47-.47 1.23 0 1.697l1.545 1.553c-.565.955-1.003 2.006-1.287 3.1h-2.18c-.663 0-1.2.52-1.2 1.186v3.6c0 .663.537 1.186 1.2 1.186h2.18c.284 1.094.722 2.145 1.287 3.1l-1.546 1.55c-.47.468-.47 1.23 0 1.698l2.544 2.546c.47.47 1.23.47 1.697 0l1.554-1.545c.954.563 2.006 1.003 3.098 1.287v2.18c0 .663.522 1.2 1.186 1.2h3.6c.663 0 1.186-.537 1.186-1.2v-2.18c1.094-.284 2.145-.724 3.1-1.287l1.55 1.546c.468.47 1.23.47 1.698 0l2.546-2.545c.47-.47.47-1.23 0-1.697l-1.545-1.553c.563-.954 1.003-2.005 1.287-3.1h2.18c.663 0 1.2-.52 1.2-1.185v-3.6c0-.665-.537-1.186-1.2-1.186zM50.25 81.5c-3.314 0-6-2.688-6-6 0-3.314 2.686-6 6-6 3.313 0 6 2.686 6 6 0 3.313-2.687 6-6 6z"/></svg>