<svg xmlns="http://www.w3.org/2000/svg" width="100" height="100" viewBox="0 0 100 100"><path d="M41.75 59.098v6.12L20 55.787v-5.23l21.75-9.428v6.162l-15.155 5.84 15.156 5.966zM55.2 41l-6.055 24.93c-.2.82-.377 1.47-.53 1.946-.15.476-.38.85-.69 1.112-.31.268-.76.4-1.352.4-1.47 0-2.206-.636-2.206-1.902 0-.332.145-1.16.433-2.486l6.033-24.93c.317-1.326.62-2.234.907-2.724.29-.49.85-.735 1.688-.735.72 0 1.27.174 1.653.52.383.346.574.822.574 1.427 0 .447-.152 1.26-.454 2.443zM80 55.79l-21.75 9.47v-6.12l15.2-5.966-15.2-5.882v-6.076L80 50.6v5.19zM94 6H6c-3.313 0-6 2.687-6 6v76c0 3.313 2.687 6 6 6h88c3.314 0 6-2.688 6-6V12c0-3.314-2.686-6-6-6zm-15 4c2.205 0 4 1.794 4 4s-1.795 4-4 4-4-1.794-4-4 1.795-4 4-4zm-11 0c2.205 0 4 1.794 4 4s-1.795 4-4 4-4-1.794-4-4 1.795-4 4-4zm26 78H6V22h88v66zm-4-70c-2.205 0-4-1.794-4-4s1.795-4 4-4 4 1.794 4 4-1.795 4-4 4z"/></svg>