<svg xmlns="http://www.w3.org/2000/svg" width="100" height="100" viewBox="0 0 100 100"><path d="M79.354 12.09C63.146-4.117 36.958-3.986 20.75 12.22s-16.322 42.456-.117 58.66L49.92 100 79.26 70.652c16.21-16.21 16.298-42.353.092-58.562zM49.997 76.756C30.394 76.756 14.5 60.864 14.5 41.26c0-19.61 15.895-35.506 35.497-35.506C69.607 5.754 85.5 21.65 85.5 41.26c-.007 19.604-15.894 35.496-35.503 35.496z"/><path d="M48.025 16.008c1.517-1.3 4.18-.863 5.04.99 1.744 4.32 3.457 8.656 5.19 12.98.03.146.167.197.303.197 4.337.296 8.672.65 13.01.96 1.243.026 2.477.71 3.04 1.84.696 1.27.462 3.03-.677 3.97-3.497 2.875-6.963 5.79-10.452 8.675-.098.083-.195.17-.26.28.985 4.29 2.09 8.56 3.12 12.842.782 2.148-1.05 4.68-3.35 4.512-.793-.01-1.486-.442-2.12-.876-3.42-2.16-6.84-4.323-10.265-6.48-.292-.18-.567-.404-.895-.51-3.88 2.337-7.702 4.78-11.573 7.137-1.064.635-2.478.625-3.523-.045-1.103-.656-1.78-2.01-1.52-3.285 1.114-4.577 2.37-9.136 3.434-13.722-3.145-2.707-6.337-5.358-9.497-8.046-.716-.58-1.493-1.187-1.803-2.09-.76-1.815.44-4.18 2.43-4.463 4.732-.4 9.497-.568 14.217-1.002 1.633-3.9 3.203-7.833 4.818-11.746.3-.783.647-1.596 1.333-2.118z"/></svg>