<svg xmlns="http://www.w3.org/2000/svg" width="100" height="100" viewBox="0 0 100 100"><path d="M66.36 17.16C52.52 3.32 30 3.32 16.16 17.16 2.316 31 2.316 53.52 16.16 67.36c13.365 13.368 34.824 13.823 48.747 1.374l2.813 2.813c-.7 1.797-.334 3.908 1.113 5.355l14.852 14.852c1.953 1.953 5.12 1.953 7.07 0 1.952-1.95 1.952-5.115 0-7.068l-14.852-14.85c-1.448-1.447-3.563-1.814-5.356-1.113l-2.813-2.816C80.188 51.984 79.73 30.525 66.36 17.16zM20.4 63.12c-11.5-11.5-11.5-30.216 0-41.718C31.904 9.9 50.62 9.9 62.12 21.402s11.503 30.217 0 41.72-30.217 11.5-41.72 0zM38.62 49.737L35.54 46.66l8.5-8.5c4.004 2.357 9.247 1.83 12.683-1.602 4.07-4.07 4.07-10.7 0-14.77-4.072-4.07-10.7-4.07-14.77 0-3.434 3.434-3.96 8.677-1.604 12.68L25.287 49.532c-.68.68-.68 1.783 0 2.462l1.23 1.23c.68.68 1.78.68 2.46 0l2.873-2.87 3.077 3.076c.68.682 1.782.68 2.46 0l1.232-1.23c.68-.68.68-1.78 0-2.46zm5.795-25.488c2.715-2.715 7.132-2.715 9.845 0 2.715 2.715 2.715 7.13 0 9.845-2.714 2.714-7.13 2.716-9.845 0-2.716-2.714-2.716-7.13 0-9.846zM29.1 58.64l1.042 3.573.95-3.322c.1-.347.176-.583.225-.71.05-.127.14-.248.275-.363.134-.114.32-.174.554-.174.238 0 .425.06.56.174.135.115.23.24.284.375.055.136.13.367.23.7l.948 3.32 1.055-3.573c.07-.26.127-.444.17-.56.043-.118.115-.22.217-.307s.248-.13.44-.13c.19 0 .356.063.497.196.14.134.21.288.21.47 0 .164-.06.412-.18.744l-1.308 3.832c-.114.322-.202.56-.265.7s-.16.272-.296.39c-.136.112-.32.17-.555.17-.242 0-.433-.063-.57-.184-.14-.12-.242-.27-.31-.443-.066-.177-.138-.405-.216-.69l-.915-3.116-.885 3.117c-.117.437-.244.763-.38.98-.138.222-.378.33-.722.33-.176 0-.325-.032-.448-.102s-.226-.166-.308-.293-.154-.276-.217-.45c-.063-.175-.11-.313-.146-.414l-1.296-3.83c-.13-.36-.193-.608-.193-.745 0-.172.07-.326.206-.463.137-.137.305-.205.504-.205.266 0 .445.075.54.227.093.154.193.41.3.775zM38.854 58.64l1.043 3.573.95-3.322c.1-.347.176-.583.225-.71.05-.127.14-.248.275-.363.134-.114.32-.174.554-.174.24 0 .426.06.56.174.136.115.23.24.285.375.055.136.13.367.23.7l.948 3.32 1.055-3.573c.07-.26.127-.444.17-.56.043-.118.115-.22.217-.307.102-.088.248-.13.44-.13.19 0 .356.063.497.196.14.134.21.288.21.47 0 .164-.06.412-.18.744l-1.308 3.832c-.113.322-.2.56-.264.7-.063.146-.16.272-.296.39-.135.112-.32.17-.554.17-.242 0-.433-.063-.57-.184-.14-.12-.242-.27-.31-.443-.066-.177-.138-.405-.216-.69l-.914-3.114-.885 3.117c-.117.435-.244.76-.38.98-.138.22-.378.33-.722.33-.176 0-.325-.032-.448-.103s-.226-.166-.308-.293c-.082-.127-.154-.275-.217-.45s-.11-.314-.146-.413L37.5 59.052c-.13-.36-.194-.607-.194-.744 0-.172.068-.326.205-.463.138-.138.306-.205.505-.205.266 0 .445.074.54.227.093.15.194.408.3.772zM48.61 58.64l1.043 3.573.95-3.322c.103-.347.177-.583.227-.71.05-.127.142-.248.274-.363.133-.114.318-.174.555-.174s.424.06.56.174c.135.115.228.24.283.375.055.136.13.367.23.7l.948 3.32 1.056-3.573c.07-.26.127-.444.17-.56.043-.118.115-.22.218-.307s.248-.13.438-.13.356.063.498.196c.142.134.21.288.21.47 0 .164-.06.412-.182.744l-1.308 3.832c-.112.322-.2.56-.264.7-.063.146-.16.272-.295.39-.136.112-.32.17-.555.17-.242 0-.435-.063-.57-.184-.14-.12-.24-.27-.31-.443-.064-.177-.14-.405-.217-.69l-.914-3.116-.885 3.117c-.118.437-.245.763-.38.98-.138.222-.378.33-.722.33-.176 0-.325-.032-.448-.102s-.226-.166-.308-.293-.154-.276-.217-.45c-.063-.175-.11-.313-.146-.414l-1.296-3.83c-.13-.36-.193-.608-.193-.745 0-.172.07-.326.206-.463.137-.137.305-.205.504-.205.266 0 .445.075.54.227.094.154.195.41.3.775z"/></svg>