<svg xmlns="http://www.w3.org/2000/svg" width="100" height="100" viewBox="0 0 100 100"><path d="M87.443 45.365c-.537-1.955-5.53-2.123-7.537-1.454L57.99 51.2 32.635 41.074l-2.676 2.854 10.852 13.03c-6.995 2.418-19.806 6.884-22.13 7.655-2.002.666 12.935 2.785 16.36 2.217 0 0 26.312-8.582 37.944-12.453l8.972-2.984c2-.666 6.07-3.91 5.487-6.028zM14.533 55.344L12.5 57.22l5.39 6.29 7.812-2.752zM94 6H6c-3.313 0-6 2.687-6 6v76c0 3.313 2.687 6 6 6h88c3.314 0 6-2.688 6-6V12c0-3.314-2.686-6-6-6zm-15 4c2.205 0 4 1.794 4 4s-1.795 4-4 4-4-1.794-4-4 1.795-4 4-4zm-11 0c2.205 0 4 1.794 4 4s-1.795 4-4 4-4-1.794-4-4 1.795-4 4-4zm26 78H6V22h88v66zm-4-70c-2.205 0-4-1.794-4-4s1.795-4 4-4 4 1.794 4 4-1.795 4-4 4z"/></svg>