<svg xmlns="http://www.w3.org/2000/svg" width="100" height="100" viewBox="0 0 100 100"><path d="M67.362 17.16C53.522 3.317 31 3.317 17.16 17.16 3.316 31 3.316 53.522 17.16 67.362c13.366 13.367 34.826 13.822 48.748 1.373l2.814 2.814c-.7 1.794-.334 3.907 1.116 5.356l14.85 14.85c1.952 1.953 5.118 1.953 7.07 0 1.953-1.95 1.953-5.117 0-7.07l-14.85-14.85c-1.45-1.45-3.564-1.816-5.358-1.115l-2.814-2.813c12.45-13.922 11.993-35.382-1.374-48.747zm-45.96 45.96c-11.503-11.5-11.503-30.217 0-41.72s30.217-11.5 41.72 0 11.5 30.22 0 41.72c-11.503 11.502-30.22 11.502-41.72 0zM54.003 22.927c-6.483-6.483-16.958-6.43-23.442.052s-6.528 16.98-.045 23.463L42.23 58.09l11.736-11.738c6.483-6.484 6.52-16.942.037-23.425zM42.27 44.58c-5.514 0-9.986-4.47-9.986-9.986 0-5.517 4.472-9.988 9.987-9.988 5.518 0 9.99 4.472 9.99 9.988 0 5.514-4.47 9.986-9.99 9.986zM42.083 61.334c4.16 0 8.09.907 11.574 2.51-2.717-3.046-6.923-5.01-11.657-5.01-4.8 0-9.056 2.02-11.767 5.14 3.554-1.684 7.58-2.64 11.85-2.64z"/></svg>