<svg xmlns="http://www.w3.org/2000/svg" width="100" height="100" viewBox="0 0 100 100"><path d="M94 6H6c-3.313 0-6 2.687-6 6v76c0 3.313 2.687 6 6 6h88c3.314 0 6-2.688 6-6V12c0-3.314-2.686-6-6-6zm-15 4c2.205 0 4 1.794 4 4s-1.795 4-4 4-4-1.794-4-4 1.795-4 4-4zm-11 0c2.205 0 4 1.794 4 4s-1.795 4-4 4-4-1.794-4-4 1.795-4 4-4zm26 78H6V22h88v66zm-4-70c-2.205 0-4-1.794-4-4s1.795-4 4-4 4 1.794 4 4-1.795 4-4 4zM47.914 32.733c1.387-.187 2.8-.17 4.186-.008.014 3.85.006 7.7 0 11.55-1.404-.07-2.81-.078-4.21.038.062-3.86.003-7.723.024-11.58zM32.907 36.473c1.258-.543 2.517-1.085 3.803-1.562 1.528 3.56 3 7.146 4.456 10.733-1.346.392-2.58 1.07-3.894 1.542-1.41-3.588-3-7.106-4.365-10.712zM58.855 45.626c1.453-3.575 2.926-7.146 4.45-10.695 1.292.447 2.552.995 3.806 1.537-1.37 3.604-2.95 7.127-4.372 10.713-1.306-.482-2.556-1.117-3.883-1.554zM20.54 45.884c.713-1.15 1.875-2.11 2.925-3.01 2.658 2.798 5.515 5.405 8.123 8.24-1.086.86-1.99 1.913-2.973 2.886-2.666-2.732-5.397-5.4-8.075-8.116zM76.538 42.946c1.095.73 2.2 1.83 2.937 2.925-2.682 2.728-5.402 5.414-8.098 8.123-.94-1.03-1.947-1.993-2.953-2.957 2.703-2.7 5.39-5.412 8.114-8.09zM14.074 55.31c3.61 1.34 7.11 2.954 10.695 4.364-.435 1.325-1.153 2.547-1.534 3.896-3.578-1.482-7.164-2.952-10.735-4.45.484-1.285 1.02-2.552 1.574-3.81zM75.238 59.674c3.588-1.41 7.096-3.02 10.707-4.363.566 1.25 1.086 2.52 1.555 3.807-3.56 1.507-7.13 2.985-10.712 4.45-.41-1.342-1.104-2.57-1.55-3.893zM50.882 70.78c-.34-.072-.688-.114-1.05-.114-2.76 0-5 2.238-5 5s2.24 5 5 5c2.742 0 4.963-2.207 4.996-4.94l8.253-12.807-12.198 7.86z"/></svg>