<svg xmlns="http://www.w3.org/2000/svg" width="100" height="100" viewBox="0 0 100 100"><path fill="#020202" d="M97.942 75.222c-.39-.3-49.533-27.235-49.98-27.425l27.422 50c.055-7.52.01-15.046.02-22.568 7.513-.01 15.027 0 22.538-.008z"/><path d="M50.752 61.202c-1.783.636-3.694 1-5.693 1-9.375 0-17-7.625-17-17s7.625-17 17-17 17 7.627 17 17c0 1.845-.306 3.616-.85 5.28 1.68.917 3.472 1.898 5.334 2.917.975-2.55 1.515-5.31 1.515-8.197 0-12.682-10.318-23-23-23s-23 10.318-23 23 10.316 23 23 23c3.043 0 5.95-.6 8.61-1.68l-2.918-5.32zM60.43 78.847c-4.686 2.148-9.89 3.356-15.37 3.356-20.403 0-37.002-16.598-37.002-37s16.6-37 37-37 37 16.598 37 37c0 5.322-1.138 10.382-3.17 14.96 1.797.984 3.567 1.956 5.273 2.894 2.496-5.442 3.898-11.485 3.898-17.854 0-23.71-19.29-43-43-43s-43 19.29-43 43 19.29 43 43 43c6.527 0 12.716-1.47 18.263-4.082l-2.89-5.273z"/></svg>