<svg xmlns="http://www.w3.org/2000/svg" width="100" height="100" viewBox="0 0 100 100"><path d="M71.784 28.216c.77.77 2.017.77 2.784 0l14.854-14.854c.77-.77.77-2.017 0-2.785-.77-.77-2.02-.77-2.784 0L71.784 25.43c-.768.77-.768 2.016 0 2.786zM60.838 37.65c-.89-.89-1.805-1.517-2.742-1.88-.94-.366-1.844-.448-2.71-.25s-1.647.643-2.337 1.333c-.493.492-.855 1.038-1.087 1.64-.232.603-.322 1.232-.27 1.886.052.653.266 1.342.643 2.066.375.723.906 1.428 1.592 2.113.69.69 1.4 1.227 2.133 1.61.732.385 1.44.602 2.128.65.684.05 1.324-.04 1.916-.27.596-.228 1.138-.588 1.63-1.08.63-.63 1.05-1.367 1.263-2.21.212-.842.146-1.747-.2-2.717-.347-.966-.998-1.93-1.96-2.893zM85.826 25.314L83.04 22.53l-3.494 3.496c.485 2.308-.166 4.807-1.958 6.6-2.82 2.82-7.393 2.82-10.213 0-2.82-2.82-2.82-7.393 0-10.213 1.792-1.792 4.292-2.443 6.6-1.958l3.498-3.497-2.785-2.785c-1.922-1.922-21.752-1.922-23.674 0l-39.57 39.57c-1.924 1.924-1.924 5.042 0 6.964l27.85 27.852c1.922 1.92 5.04 1.92 6.963 0l39.57-39.572c1.922-1.923 1.922-21.75 0-23.674zm-43.65 42.633c-.397 1.06-1.096 2.09-2.096 3.09-1.198 1.2-2.415 1.962-3.646 2.287-.878.227-1.762.24-2.65.04-.89-.197-1.592-.554-2.105-1.067-.3-.298-.452-.656-.457-1.078-.006-.42.15-.79.472-1.11.26-.26.562-.396.908-.41.345-.016.745.078 1.197.277.542.23 1.03.387 1.47.47.44.08.907.04 1.4-.117.496-.16 1.008-.503 1.538-1.03.73-.73 1.152-1.492 1.27-2.287.115-.795-.082-1.447-.59-1.957-.403-.402-.853-.605-1.35-.613-.5-.004-1.008.12-1.53.377-.522.26-1.184.64-1.985 1.14-1.077.67-2.047 1.16-2.908 1.478-.863.313-1.702.408-2.52.28-.817-.126-1.578-.54-2.28-1.24-.667-.67-1.08-1.446-1.233-2.33-.154-.884-.027-1.812.385-2.78.412-.97 1.083-1.92 2.017-2.854.746-.746 1.483-1.3 2.213-1.658.73-.357 1.426-.563 2.092-.617.665-.052 1.25.01 1.75.18.503.172.916.416 1.236.737.292.29.453.66.48 1.103.027.44-.113.815-.422 1.128-.282.28-.566.424-.853.43s-.677-.065-1.168-.215c-.68-.238-1.303-.33-1.87-.28-.565.055-1.19.423-1.876 1.106-.636.636-1.01 1.287-1.118 1.955-.11.67.03 1.2.42 1.59.245.245.52.388.83.433.31.045.645.015 1.003-.092.36-.105.694-.24 1.003-.406.31-.164.807-.45 1.492-.86.846-.524 1.64-.97 2.39-1.33.75-.362 1.455-.6 2.12-.712.666-.113 1.32-.068 1.96.137.642.203 1.268.613 1.88 1.227.736.734 1.207 1.584 1.415 2.55.21.953.113 1.963-.283 3.025zM54.98 55.725l-6.687 6.688c-.537.535-1.04.802-1.512.8-.472-.003-.974-.27-1.504-.8l-9.13-9.13c-.355-.356-.59-.696-.71-1.024-.118-.33-.118-.657.004-.983s.356-.662.705-1.01l6.497-6.497c.392-.392.77-.597 1.135-.614.364-.017.688.116.97.398.287.287.42.613.406.978-.017.365-.22.743-.614 1.135l-5.545 5.544 2.983 2.983 5.104-5.104c.376-.376.74-.572 1.094-.59.354-.016.67.114.945.39.277.276.41.592.403.95-.008.355-.203.725-.584 1.105l-5.106 5.104 3.456 3.454 5.733-5.734c.387-.386.77-.588 1.145-.604.375-.017.713.124 1.012.423.287.286.422.617.406.992-.02.373-.22.755-.607 1.143zM65.8 44.42c-.44 1.04-1.14 2.036-2.095 2.992-.95.95-1.955 1.647-3.014 2.092-1.057.445-2.115.64-3.177.584-1.062-.055-2.11-.346-3.152-.873-1.04-.528-2.018-1.248-2.93-2.16-.933-.934-1.655-1.924-2.165-2.97-.512-1.046-.786-2.098-.825-3.153-.04-1.055.162-2.092.6-3.112.44-1.02 1.124-1.992 2.05-2.92 1.26-1.26 2.6-2.085 4.013-2.478s2.824-.35 4.23.13c1.404.477 2.745 1.35 4.016 2.622.937.94 1.665 1.92 2.177 2.942.515 1.02.8 2.068.854 3.14.058 1.072-.138 2.127-.58 3.165z"/></svg>