<svg xmlns="http://www.w3.org/2000/svg" width="100" height="100" viewBox="0 0 100 100"><path d="M67.36 16.16C53.52 2.318 31 2.318 17.16 16.16 3.316 30 3.316 52.52 17.16 66.36c13.365 13.368 34.824 13.823 48.747 1.374l2.813 2.813c-.7 1.797-.334 3.908 1.114 5.357l14.85 14.85c1.954 1.954 5.12 1.953 7.07 0 1.954-1.95 1.954-5.115 0-7.068l-14.85-14.85c-1.448-1.447-3.563-1.814-5.356-1.113l-2.814-2.816C81.188 50.984 80.73 29.525 67.36 16.16zM21.4 62.12c-11.5-11.502-11.5-30.216 0-41.718C32.904 8.9 51.62 8.9 63.12 20.402s11.503 30.217 0 41.72-30.217 11.5-41.72-.002zM39.354 42.815L38.51 30.16c-.16-2.466-.238-4.236-.238-5.31 0-1.463.383-2.604 1.15-3.422.765-.818 1.773-1.23 3.024-1.23 1.515 0 2.527.525 3.038 1.573.51 1.05.767 2.56.767 4.532 0 1.163-.06 2.343-.185 3.54L44.93 42.87c-.123 1.55-.388 2.74-.793 3.567-.405.828-1.074 1.242-2.008 1.242-.952 0-1.612-.4-1.982-1.202-.37-.802-.634-2.022-.794-3.66zM42.287 60.2c-1.074 0-2.012-.35-2.813-1.046-.802-.694-1.202-1.668-1.202-2.918 0-1.092.383-2.02 1.15-2.787.766-.77 1.703-1.15 2.812-1.15s2.057.384 2.84 1.15c.784.765 1.177 1.694 1.177 2.786 0 1.232-.395 2.2-1.188 2.906-.792.706-1.718 1.057-2.775 1.057zM24.262 81.5h36v4h-36zM32.26 90.223h20v4h-20z"/></svg>