<svg class="icon" xmlns="http://www.w3.org/2000/svg" width="100" height="100" viewBox="0 0 100 100"><path d="M50 0C22.43 0 0 22.43 0 50s22.43 50 50 50 50-22.43 50-50S77.57 0 50 0zm3 93.887V86h-6v7.887C25.126 92.404 7.595 74.874 6.114 53H14v-6H6.114C7.594 25.126 25.126 7.595 47 6.114V14h6V6.114C74.874 7.594 92.404 25.126 93.887 47H86v6h7.887C92.404 74.874 74.874 92.404 53 93.887z"/><path fill="#020201" d="M29.04 59.52c3.094-2.054 6.53-3.286 9.853-4.384.478-.156.954-.367 1.43-.525l.097-.06c.703-.246 1.368-.49 1.912-.79.025-.06.06-.16.104-.32C39.7 49.45 37.84 43.273 37.84 37.984c0-4.486 1.41-7.813 4.068-9.836-1.148-.582-2.536-.805-4.028-.805-3.977 0-7.2 1.588-7.2 7.292 0 3.788 1.42 8.433 3.54 11.13-.022.213-.046.427-.085.64-.127.58-.33 1.228-.87 1.55-.608.36-1.284.59-1.948.822-2.754.927-5.604 1.744-8.047 3.37-1.27.835-2.133 2.5-2.607 3.925-.49 1.483-.69 2.93-.66 4.93h7.51c.477-1 .985-1.124 1.526-1.48zM76.732 52.2c-2.445-1.624-5.295-2.468-8.05-3.395-.663-.232-1.34-.476-1.946-.837-.543-.322-.746-.98-.87-1.558-.056-.307-.09-.62-.106-.93 1.996-2.73 3.32-7.19 3.32-10.845 0-5.706-3.223-7.295-7.2-7.295-1.513 0-2.913.232-4.073.83 2.637 2.027 4.035 5.343 4.035 9.81 0 5.15-1.73 11.08-4.355 15.1.01.044.017.09.023.134.068.313.125.476.16.558.576.32 1.266.572 2.035.844l1.152.383c3.41 1.132 6.936 2.502 10.11 4.61.515.335 1 .39 1.454 1.39h7.577c.028-2-.172-3.447-.66-4.93-.474-1.424-1.335-3.033-2.605-3.87z"/><path d="M69.643 61.422c-3.26-2.162-7.06-3.3-10.73-4.535-.887-.31-1.786-.64-2.596-1.123-.725-.43-.994-1.305-1.162-2.078-.073-.41-.12-.828-.143-1.242 2.662-3.64 4.428-9.585 4.428-14.46 0-7.607-4.297-9.727-9.6-9.727s-9.6 2.118-9.6 9.725c0 5.05 1.893 11.244 4.717 14.84-.026.284-.06.567-.11.852-.17.77-.44 1.64-1.16 2.067-.813.48-1.712.786-2.6 1.098-3.67 1.235-7.47 2.326-10.728 4.49-1.696 1.114-2.845 3.27-3.478 5.17-.652 1.97-.92 4.502-.88 6.502H73.998c.04-2-.228-4.53-.88-6.504-.633-1.902-1.78-3.957-3.474-5.074z"/></svg>